<svg width="588" height="588" viewBox="0 0 588 588" fill="none" xmlns="http://www.w3.org/2000/svg">
<path fill-rule="evenodd" clip-rule="evenodd" d="M554.068 157.613C554.762 157.613 555.324 158.175 555.324 158.869V175.202C555.324 175.896 554.762 176.459 554.068 176.459C553.374 176.459 552.811 175.896 552.811 175.202V158.869C552.811 158.175 553.374 157.613 554.068 157.613Z" fill="#142A38"/>
<path fill-rule="evenodd" clip-rule="evenodd" d="M76.63 291.421C77.3239 291.421 77.8864 291.984 77.8864 292.678V309.011C77.8864 309.705 77.3239 310.268 76.63 310.268C75.9361 310.268 75.3735 309.705 75.3735 309.011V292.678C75.3735 291.984 75.9361 291.421 76.63 291.421Z" fill="#142A38"/>
<path fill-rule="evenodd" clip-rule="evenodd" d="M124.376 270.692C125.07 270.692 125.633 271.254 125.633 271.948V288.281C125.633 288.975 125.07 289.538 124.376 289.538C123.682 289.538 123.12 288.975 123.12 288.281V271.948C123.12 271.254 123.682 270.692 124.376 270.692Z" fill="#142A38"/>
<path fill-rule="evenodd" clip-rule="evenodd" d="M544.665 167.035C544.665 166.341 545.228 165.778 545.922 165.778H562.255C562.949 165.778 563.512 166.341 563.512 167.035C563.512 167.729 562.949 168.291 562.255 168.291H545.922C545.228 168.291 544.665 167.729 544.665 167.035Z" fill="#142A38"/>
<path fill-rule="evenodd" clip-rule="evenodd" d="M67.2273 300.844C67.2273 300.15 67.7898 299.587 68.4837 299.587H84.8171C85.511 299.587 86.0735 300.15 86.0735 300.844C86.0735 301.537 85.511 302.1 84.8171 302.1H68.4837C67.7898 302.1 67.2273 301.537 67.2273 300.844Z" fill="#142A38"/>
<path fill-rule="evenodd" clip-rule="evenodd" d="M114.974 280.114C114.974 279.42 115.536 278.857 116.23 278.857H132.564C133.258 278.857 133.82 279.42 133.82 280.114C133.82 280.808 133.258 281.37 132.564 281.37H116.23C115.536 281.37 114.974 280.808 114.974 280.114Z" fill="#142A38"/>
<g clip-path="url(#clip0_553_8582)">
<path d="M522.056 185.729C545.672 228.305 551.408 278.518 538.001 325.323C524.594 372.128 493.143 411.69 450.567 435.306C407.991 458.922 357.778 464.658 310.973 451.251C264.168 437.844 224.606 406.393 200.99 363.817C189.296 342.736 181.869 319.558 179.134 295.606C176.398 271.654 178.406 247.398 185.045 224.223C191.683 201.047 202.821 179.406 217.823 160.535C232.825 141.664 251.397 125.933 272.478 114.24C293.56 102.546 316.738 95.1196 340.69 92.3838C364.642 89.6479 388.898 91.6566 412.073 98.2949C435.249 104.933 456.89 116.071 475.76 131.073C494.631 146.075 510.363 164.647 522.056 185.729Z" fill="#FF8A14"/>
<path d="M202.583 288.574C202.583 288.574 237.527 355.529 277.031 375.288C331.055 400.73 380.554 396.473 422.459 382.512C464.364 368.551 494.181 340.677 516.379 297.39C528.943 272.89 533.915 247.409 535.539 211.325C535.539 211.325 548.357 290.634 537.789 316.865C527.22 343.095 504.594 367.936 483.472 386.741C462.351 405.546 437.169 419.214 409.892 426.679C382.615 434.143 353.982 435.202 326.229 429.772C298.475 424.342 272.352 412.57 249.9 395.376C227.448 378.182 209.274 356.031 196.797 330.652C184.32 305.274 202.588 288.575 202.588 288.575L202.583 288.574Z" fill="#FA7D11"/>
<path d="M291.189 104.976C275.842 115.498 262.385 128.54 251.387 143.55C225.313 179.202 214.469 223.752 221.241 267.399C228.014 311.046 240.06 339.143 278.286 369.32C308.44 393.125 350.53 410.468 414.607 399.017C452.976 392.161 494.595 358.816 520.67 323.164C531.641 308.135 539.992 291.359 545.369 273.545C542.817 301.709 533.359 345.916 518.561 370.015C503.763 394.114 483.595 414.466 459.632 429.483C435.668 444.499 408.558 453.773 380.418 456.581C352.278 459.389 323.87 455.654 297.412 445.669C270.954 435.683 247.162 419.717 227.894 399.017C208.626 378.317 194.403 353.444 186.337 326.339C178.27 299.235 176.578 270.632 181.392 242.765C186.206 214.898 197.396 188.521 214.089 165.694C233.754 138.786 260.421 117.785 291.189 104.976Z" fill="#EB6D00"/>
<path d="M536.928 295.177C536.928 295.177 536.928 295.176 536.929 295.177C538.312 233.851 504.148 173.974 485.977 156.012C464.428 134.713 427.54 107.28 364.076 97.9927C348.905 95.7725 341.704 96.1918 325.401 97.3411C325.4 97.341 361.872 88.0053 361.872 88.0053L361.871 88.0064C384.026 92.9258 424.259 95.9858 446.137 112.494C472.183 127.541 489.13 145.172 507.969 165.681C526.809 186.19 530.381 202.612 536.598 225.735C543.893 252.868 536.928 295.177 536.928 295.177Z" fill="#FFB371"/>
<path fill-rule="evenodd" clip-rule="evenodd" d="M340.188 88.0001C315.661 90.8017 291.926 98.4069 270.337 110.381C248.749 122.356 229.731 138.465 214.368 157.79C199.006 177.115 187.6 199.276 180.802 223.008C174.004 246.741 171.947 271.58 174.749 296.107C177.55 320.635 185.155 344.37 197.13 365.959C221.314 409.558 261.827 441.765 309.757 455.494C357.687 469.223 409.108 463.35 452.707 439.166C496.307 414.982 528.513 374.469 542.242 326.539C555.972 278.609 550.098 227.188 525.914 183.589C513.94 162.001 497.83 142.982 478.506 127.62C459.181 112.257 437.02 100.851 413.288 94.0534C389.555 87.2554 364.716 85.1985 340.188 88.0001ZM274.618 118.099C295.193 106.687 317.814 99.4389 341.19 96.7688C364.566 94.0988 388.239 96.0591 410.857 102.538C433.476 109.017 454.596 119.887 473.014 134.528C491.431 149.17 506.784 167.295 518.196 187.87C541.245 229.422 546.842 278.429 533.758 324.109C520.673 369.789 489.979 408.4 448.426 431.448C406.873 454.496 357.867 460.094 312.187 447.009C266.507 433.925 227.896 403.23 204.848 361.678C193.435 341.103 186.187 318.482 183.517 295.106C180.847 271.73 182.808 248.057 189.286 225.439C195.765 202.82 206.635 181.699 221.277 163.282C235.918 144.865 254.043 129.512 274.618 118.099Z" fill="#142A38"/>
<path fill-rule="evenodd" clip-rule="evenodd" d="M211.243 304.874C199.425 320.884 192.198 337.053 190.949 352.565C190.754 354.994 192.565 357.122 194.994 357.317C197.423 357.513 199.551 355.702 199.747 353.273C200.819 339.945 207.118 325.323 218.343 310.116C229.548 294.936 245.494 279.406 265.449 264.318C305.356 234.141 360.915 206.018 425.452 186.118C461.268 175.128 498.896 178.227 518.634 186.769C520.871 187.737 523.469 186.708 524.437 184.472C525.405 182.235 524.376 179.637 522.139 178.669C500.177 169.165 460.352 166.177 422.86 177.682L422.854 177.683C357.513 197.831 300.99 226.378 260.125 257.278C239.694 272.728 223.08 288.838 211.243 304.874Z" fill="#142A38"/>
<path fill-rule="evenodd" clip-rule="evenodd" d="M318.68 93.0752C317.469 95.1901 318.201 97.8864 320.316 99.0976C360.098 121.88 400.614 169.393 427.694 231.728C445.728 273.239 455.012 314.665 456.098 350.924C457.186 387.27 450.033 417.991 435.698 438.515C434.302 440.513 434.79 443.264 436.788 444.66C438.786 446.055 441.537 445.567 442.933 443.569C458.749 420.926 466.04 388.076 464.92 350.66C463.796 313.157 454.217 270.631 435.789 228.211C408.177 164.651 366.566 115.413 324.702 91.4388C322.587 90.2277 319.891 90.9603 318.68 93.0752Z" fill="#142A38"/>
<path fill-rule="evenodd" clip-rule="evenodd" d="M219.318 152.908C218.924 155.313 220.553 157.583 222.958 157.978C275.898 166.666 336.489 174.621 386.979 158.809C407.267 152.758 419.533 143.829 426.263 133.545C433.012 123.233 433.777 112.198 432.347 102.81C431.98 100.401 429.729 98.7452 427.32 99.1123C424.911 99.4794 423.255 101.73 423.622 104.139C424.829 112.061 424.106 120.724 418.878 128.712C413.635 136.724 403.443 144.693 384.429 150.36L384.369 150.377C336.16 165.485 277.586 158 224.388 149.268C221.983 148.874 219.713 150.503 219.318 152.908ZM347.887 322.268C366.629 282.359 390.765 249.03 433.045 234.221L433.245 234.15L433.243 234.146C451.578 226.716 471.76 225.13 491.03 229.606C510.3 234.081 527.718 244.399 540.901 259.149C542.525 260.966 545.315 261.123 547.132 259.499C548.949 257.874 549.106 255.085 547.481 253.268C533.086 237.162 514.068 225.896 493.027 221.009C472.02 216.13 450.021 217.848 430.027 225.926C384.483 241.918 359.005 277.832 339.898 318.516C331.542 336.31 324.325 355.196 317.195 373.853C316.175 376.522 315.157 379.186 314.137 381.842C305.959 403.146 297.686 423.935 287.634 442.719C286.484 444.868 287.294 447.542 289.443 448.692C291.591 449.842 294.266 449.032 295.416 446.883C305.757 427.56 314.202 406.3 322.377 385.005C323.403 382.331 324.426 379.656 325.447 376.985C332.589 358.297 339.681 339.743 347.887 322.268Z" fill="#142A38"/>
</g>
<path fill-rule="evenodd" clip-rule="evenodd" d="M321.457 455.981C322.862 457.962 322.394 460.707 320.413 462.111L198.54 548.49C196.559 549.894 193.814 549.426 192.409 547.445C191.005 545.464 191.473 542.719 193.454 541.314L315.327 454.936C317.308 453.531 320.053 453.999 321.457 455.981Z" fill="#142A38"/>
<path fill-rule="evenodd" clip-rule="evenodd" d="M403.1 454.359C403.492 454.932 403.347 455.714 402.774 456.106L284.671 537.145C284.099 537.538 283.317 537.392 282.924 536.82C282.532 536.248 282.677 535.466 283.25 535.073L401.353 454.034C401.925 453.642 402.707 453.787 403.1 454.359Z" fill="#142A38"/>
<path fill-rule="evenodd" clip-rule="evenodd" d="M331.049 306.891C331.526 307.395 331.504 308.19 331 308.667C298.672 339.265 278.946 355.296 238.116 379.509C237.519 379.863 236.749 379.666 236.395 379.069C236.041 378.472 236.238 377.701 236.834 377.347C277.474 353.247 297.054 337.337 329.272 306.842C329.776 306.365 330.572 306.387 331.049 306.891Z" fill="#142A38"/>
<path fill-rule="evenodd" clip-rule="evenodd" d="M317.831 293.7C318.308 294.204 318.286 294.999 317.782 295.476C285.455 326.074 265.728 342.104 224.898 366.317C224.302 366.671 223.531 366.475 223.177 365.878C222.823 365.281 223.02 364.51 223.617 364.156C264.256 340.055 283.836 324.146 316.055 293.651C316.559 293.174 317.354 293.196 317.831 293.7Z" fill="#142A38"/>
<path fill-rule="evenodd" clip-rule="evenodd" d="M450.612 81.5826C450.968 80.987 451.739 80.7929 452.335 81.1489C482.211 99.0101 497.401 111.102 519.877 138.279C520.319 138.814 520.244 139.606 519.709 140.048C519.175 140.491 518.383 140.416 517.94 139.881C495.673 112.956 480.714 101.043 451.045 83.3057C450.45 82.9496 450.256 82.1782 450.612 81.5826Z" fill="#142A38"/>
<path fill-rule="evenodd" clip-rule="evenodd" d="M447.378 65.9838C447.677 65.3579 448.428 65.0936 449.054 65.3933C464.903 72.9842 489.849 88.1459 514.128 113.719C514.605 114.223 514.585 115.018 514.081 115.496C513.578 115.973 512.783 115.953 512.305 115.45C488.271 90.1332 463.588 75.1408 447.968 67.6596C447.342 67.3599 447.078 66.6096 447.378 65.9838Z" fill="#142A38"/>
<path fill-rule="evenodd" clip-rule="evenodd" d="M500.32 80.189C500.753 79.6465 501.543 79.5573 502.086 79.9899C507.32 84.1634 510.142 86.5619 514.745 91.0684C515.241 91.5538 515.25 92.3492 514.764 92.8451C514.279 93.341 513.484 93.3495 512.988 92.8641C508.461 88.4337 505.709 86.0922 500.519 81.9547C499.977 81.5221 499.887 80.7316 500.32 80.189Z" fill="#142A38"/>
<path fill-rule="evenodd" clip-rule="evenodd" d="M365 43.2788C365.694 43.2788 366.257 43.8413 366.257 44.5352V60.8686C366.257 61.5625 365.694 62.1251 365 62.1251C364.306 62.1251 363.744 61.5625 363.744 60.8686V44.5352C363.744 43.8413 364.306 43.2788 365 43.2788Z" fill="#142A38"/>
<path fill-rule="evenodd" clip-rule="evenodd" d="M355.572 52.701C355.572 52.0071 356.134 51.4446 356.828 51.4446H373.161C373.855 51.4446 374.418 52.0071 374.418 52.701C374.418 53.3949 373.855 53.9574 373.161 53.9574H356.828C356.134 53.9574 355.572 53.3949 355.572 52.701Z" fill="#142A38"/>
<path fill-rule="evenodd" clip-rule="evenodd" d="M260.074 62.7537C260.768 62.7537 261.33 63.3162 261.33 64.0101V80.3435C261.33 81.0374 260.768 81.5999 260.074 81.5999C259.38 81.5999 258.817 81.0374 258.817 80.3435V64.0101C258.817 63.3162 259.38 62.7537 260.074 62.7537Z" fill="#142A38"/>
<path fill-rule="evenodd" clip-rule="evenodd" d="M250.645 72.1758C250.645 71.482 251.208 70.9194 251.901 70.9194H268.235C268.929 70.9194 269.491 71.482 269.491 72.1758C269.491 72.8697 268.929 73.4323 268.235 73.4323H251.901C251.208 73.4323 250.645 72.8697 250.645 72.1758Z" fill="#142A38"/>
<path fill-rule="evenodd" clip-rule="evenodd" d="M173.384 123.688C174.078 123.688 174.641 124.251 174.641 124.945V141.278C174.641 141.972 174.078 142.534 173.384 142.534C172.69 142.534 172.128 141.972 172.128 141.278V124.945C172.128 124.251 172.69 123.688 173.384 123.688Z" fill="#142A38"/>
<path fill-rule="evenodd" clip-rule="evenodd" d="M163.955 133.114C163.955 132.42 164.518 131.857 165.212 131.857H181.545C182.239 131.857 182.802 132.42 182.802 133.114C182.802 133.807 182.239 134.37 181.545 134.37H165.212C164.518 134.37 163.955 133.807 163.955 133.114Z" fill="#142A38"/>
<path fill-rule="evenodd" clip-rule="evenodd" d="M197.332 188.295C197.733 188.861 197.6 189.645 197.035 190.047L98.4059 260.092C97.8401 260.494 97.0558 260.361 96.654 259.795C96.2522 259.23 96.3852 258.445 96.9509 258.044L195.58 187.998C196.145 187.596 196.93 187.729 197.332 188.295Z" fill="#142A38"/>
<path fill-rule="evenodd" clip-rule="evenodd" d="M231.571 143.692C231.973 144.258 231.84 145.042 231.274 145.444L132.646 215.489C132.08 215.891 131.296 215.758 130.894 215.193C130.492 214.627 130.625 213.843 131.191 213.441L229.819 143.395C230.385 142.994 231.169 143.127 231.571 143.692Z" fill="#142A38"/>
<path fill-rule="evenodd" clip-rule="evenodd" d="M182.596 395.958C184.018 397.927 183.574 400.676 181.605 402.097L35.8603 507.322C33.8912 508.744 31.1425 508.3 29.7209 506.331C28.2992 504.362 28.743 501.613 30.7121 500.191L176.457 394.966C178.426 393.545 181.174 393.989 182.596 395.958Z" fill="#142A38"/>
<path fill-rule="evenodd" clip-rule="evenodd" d="M165.651 359.838C167.072 361.808 166.626 364.556 164.656 365.977L80.1624 426.913C78.1926 428.334 75.4441 427.888 74.0235 425.918C72.6029 423.949 73.0481 421.2 75.0179 419.78L159.512 358.843C161.482 357.423 164.23 357.868 165.651 359.838Z" fill="#142A38"/>
<path fill-rule="evenodd" clip-rule="evenodd" d="M182.307 288.859C183.722 290.833 183.269 293.58 181.295 294.995L60.3652 381.688C58.3913 383.103 55.6441 382.65 54.2291 380.676C52.8141 378.702 53.2671 375.955 55.241 374.54L176.171 287.847C178.145 286.432 180.892 286.885 182.307 288.859Z" fill="#142A38"/>
<path fill-rule="evenodd" clip-rule="evenodd" d="M239.468 410.1C240.885 412.072 240.435 414.82 238.463 416.237L153.655 477.173C151.682 478.59 148.935 478.14 147.518 476.168C146.1 474.196 146.55 471.448 148.523 470.031L233.331 409.095C235.303 407.678 238.051 408.128 239.468 410.1Z" fill="#142A38"/>
<path fill-rule="evenodd" clip-rule="evenodd" d="M215.911 467.271C217.325 469.245 216.872 471.992 214.898 473.407L139.513 527.433C137.539 528.848 134.792 528.394 133.377 526.42C131.962 524.446 132.416 521.699 134.39 520.284L209.775 466.259C211.749 464.844 214.496 465.297 215.911 467.271Z" fill="#142A38"/>
<path fill-rule="evenodd" clip-rule="evenodd" d="M283.115 436.473C284.539 438.441 284.099 441.19 282.132 442.614L240.042 473.082C238.074 474.506 235.325 474.066 233.901 472.098C232.477 470.131 232.917 467.382 234.885 465.958L276.975 435.49C278.942 434.066 281.691 434.506 283.115 436.473Z" fill="#142A38"/>
<path fill-rule="evenodd" clip-rule="evenodd" d="M30.468 454.126C28.5598 454.126 27.0128 455.673 27.0128 457.581C27.0128 459.489 28.5598 461.036 30.468 461.036C32.3762 461.036 33.9231 459.489 33.9231 457.581C33.9231 455.673 32.3762 454.126 30.468 454.126ZM24.5 457.581C24.5 454.285 27.172 451.613 30.468 451.613C33.764 451.613 36.436 454.285 36.436 457.581C36.436 460.877 33.764 463.549 30.468 463.549C27.172 463.549 24.5 460.877 24.5 457.581Z" fill="#142A38"/>
<path fill-rule="evenodd" clip-rule="evenodd" d="M152.974 435.282C151.066 435.282 149.519 436.829 149.519 438.737C149.519 440.645 151.066 442.192 152.974 442.192C154.882 442.192 156.429 440.645 156.429 438.737C156.429 436.829 154.882 435.282 152.974 435.282ZM147.006 438.737C147.006 435.441 149.678 432.769 152.974 432.769C156.27 432.769 158.942 435.441 158.942 438.737C158.942 442.033 156.27 444.705 152.974 444.705C149.678 444.705 147.006 442.033 147.006 438.737Z" fill="#142A38"/>
<path fill-rule="evenodd" clip-rule="evenodd" d="M182.484 509.411C180.576 509.411 179.029 510.958 179.029 512.866C179.029 514.774 180.576 516.321 182.484 516.321C184.392 516.321 185.939 514.774 185.939 512.866C185.939 510.958 184.392 509.411 182.484 509.411ZM176.516 512.866C176.516 509.57 179.188 506.898 182.484 506.898C185.78 506.898 188.452 509.57 188.452 512.866C188.452 516.162 185.78 518.834 182.484 518.834C179.188 518.834 176.516 516.162 176.516 512.866Z" fill="#142A38"/>
<defs>
<clipPath id="clip0_553_8582">
<rect width="376.297" height="376.297" fill="white" transform="translate(173.389 86.6235)"/>
</clipPath>
</defs>
</svg>
