<svg width="628" height="628" viewBox="0 0 628 628" fill="none" xmlns="http://www.w3.org/2000/svg">
<path fill-rule="evenodd" clip-rule="evenodd" d="M591.759 168.334C592.501 168.334 593.101 168.935 593.101 169.676V187.121C593.101 187.862 592.501 188.463 591.759 188.463C591.018 188.463 590.417 187.862 590.417 187.121V169.676C590.417 168.935 591.018 168.334 591.759 168.334Z" fill="#142A38"/>
<path fill-rule="evenodd" clip-rule="evenodd" d="M81.8427 311.246C82.5838 311.246 83.1846 311.847 83.1846 312.588V330.033C83.1846 330.774 82.5838 331.374 81.8427 331.374C81.1016 331.374 80.5009 330.774 80.5009 330.033V312.588C80.5009 311.847 81.1016 311.246 81.8427 311.246Z" fill="#142A38"/>
<path fill-rule="evenodd" clip-rule="evenodd" d="M132.837 289.106C133.578 289.106 134.179 289.707 134.179 290.448V307.892C134.179 308.633 133.578 309.234 132.837 309.234C132.096 309.234 131.495 308.633 131.495 307.892V290.448C131.495 289.707 132.096 289.106 132.837 289.106Z" fill="#142A38"/>
<path fill-rule="evenodd" clip-rule="evenodd" d="M581.717 178.398C581.717 177.656 582.318 177.056 583.059 177.056H600.504C601.245 177.056 601.846 177.656 601.846 178.398C601.846 179.139 601.245 179.739 600.504 179.739H583.059C582.318 179.739 581.717 179.139 581.717 178.398Z" fill="#142A38"/>
<path fill-rule="evenodd" clip-rule="evenodd" d="M71.8007 321.309C71.8007 320.568 72.4014 319.967 73.1425 319.967H90.5871C91.3282 319.967 91.929 320.568 91.929 321.309C91.929 322.05 91.3282 322.651 90.5871 322.651H73.1425C72.4014 322.651 71.8007 322.05 71.8007 321.309Z" fill="#142A38"/>
<path fill-rule="evenodd" clip-rule="evenodd" d="M122.795 299.17C122.795 298.428 123.396 297.828 124.137 297.828H141.582C142.323 297.828 142.923 298.428 142.923 299.17C142.923 299.911 142.323 300.511 141.582 300.511H124.137C123.396 300.511 122.795 299.911 122.795 299.17Z" fill="#142A38"/>
<g clip-path="url(#clip0_1633_12317)">
<path d="M557.57 198.363C582.793 243.835 588.919 297.465 574.6 347.454C560.281 397.443 526.691 439.696 481.218 464.919C435.746 490.141 382.116 496.267 332.127 481.948C282.139 467.629 239.885 434.039 214.663 388.567C202.174 366.051 194.242 341.296 191.32 315.715C188.398 290.134 190.543 264.228 197.633 239.476C204.723 214.724 216.619 191.611 232.641 171.456C248.664 151.301 268.499 134.5 291.015 122.011C313.53 109.522 338.285 101.59 363.866 98.6683C389.447 95.7463 415.354 97.8916 440.106 104.982C464.857 112.071 487.971 123.967 508.125 139.99C528.28 156.012 545.081 175.847 557.57 198.363Z" fill="#FF8A14"/>
<path d="M216.365 308.205C216.365 308.205 253.686 379.715 295.877 400.818C353.576 427.991 406.442 423.445 451.198 408.533C495.954 393.622 527.799 363.852 551.507 317.621C564.926 291.454 570.236 264.239 571.97 225.701C571.97 225.701 585.661 310.405 574.373 338.42C563.085 366.435 538.92 392.966 516.362 413.05C493.803 433.134 466.908 447.732 437.776 455.704C408.643 463.677 378.063 464.807 348.421 459.008C318.78 453.208 290.88 440.636 266.9 422.272C242.921 403.909 223.51 380.251 210.185 353.146C196.859 326.041 216.37 308.206 216.37 308.206L216.365 308.205Z" fill="#FA7D11"/>
<path d="M310.998 112.117C294.607 123.355 280.235 137.284 268.489 153.315C240.64 191.392 229.059 238.973 236.292 285.589C243.525 332.206 256.391 362.214 297.217 394.444C329.422 419.868 374.375 438.39 442.812 426.161C483.79 418.839 528.241 383.225 556.089 345.148C567.807 329.097 576.726 311.179 582.469 292.154C579.743 322.234 569.643 369.448 553.838 395.186C538.033 420.925 516.493 442.661 490.899 458.699C465.306 474.737 436.351 484.642 406.297 487.641C376.243 490.64 345.902 486.651 317.644 475.986C289.386 465.321 263.976 448.269 243.397 426.161C222.818 404.053 207.628 377.488 199.013 348.539C190.398 319.591 188.59 289.042 193.732 259.28C198.873 229.517 210.825 201.346 228.653 176.965C249.656 148.227 278.137 125.798 310.998 112.117Z" fill="#EB6D00"/>
<path d="M573.454 315.257C573.454 315.257 573.453 315.256 573.455 315.257C574.932 249.759 538.444 185.809 519.036 166.625C496.022 143.877 456.624 114.578 388.843 104.659C372.64 102.288 364.95 102.735 347.537 103.963C347.536 103.963 386.489 93.992 386.489 93.992L386.488 93.9932C410.15 99.2473 453.12 102.515 476.487 120.146C504.305 136.217 522.404 155.047 542.525 176.952C562.646 198.856 566.462 216.395 573.101 241.091C580.892 270.07 573.454 315.257 573.454 315.257Z" fill="#FFB371"/>
<path fill-rule="evenodd" clip-rule="evenodd" d="M363.331 93.9865C337.135 96.9787 311.785 105.101 288.728 117.89C265.671 130.68 245.359 147.885 228.951 168.524C212.544 189.163 200.362 212.832 193.101 238.179C185.841 263.526 183.644 290.055 186.636 316.251C189.629 342.447 197.751 367.797 210.54 390.854C236.369 437.419 279.638 471.817 330.829 486.48C382.019 501.143 436.938 494.87 483.504 469.041C530.069 443.212 564.467 399.943 579.13 348.753C593.793 297.562 587.52 242.643 561.691 196.078C548.902 173.021 531.697 152.709 511.057 136.301C490.418 119.894 466.75 107.712 441.403 100.452C416.056 93.1912 389.527 90.9944 363.331 93.9865ZM293.3 126.133C315.274 113.945 339.434 106.203 364.4 103.352C389.367 100.5 414.65 102.594 438.807 109.513C462.964 116.433 485.521 128.043 505.192 143.68C524.862 159.317 541.259 178.676 553.448 200.65C578.064 245.029 584.043 297.37 570.068 346.157C556.094 394.944 523.311 436.182 478.931 460.798C434.552 485.414 382.212 491.393 333.424 477.418C284.637 463.444 243.4 430.661 218.783 386.282C206.594 364.307 198.853 340.147 196.002 315.181C193.15 290.215 195.244 264.932 202.163 240.775C209.083 216.618 220.692 194.06 236.33 174.39C251.967 154.72 271.325 138.322 293.3 126.133Z" fill="#142A38"/>
<path fill-rule="evenodd" clip-rule="evenodd" d="M225.613 325.614C212.992 342.712 205.273 359.982 203.939 376.549C203.73 379.143 205.664 381.416 208.259 381.625C210.854 381.834 213.126 379.9 213.335 377.305C214.481 363.07 221.208 347.454 233.197 331.212C245.164 315 262.194 298.414 283.506 282.298C326.129 250.069 385.467 220.033 454.395 198.779C492.647 187.042 532.835 190.351 553.916 199.474C556.304 200.508 559.079 199.41 560.113 197.021C561.147 194.632 560.048 191.857 557.659 190.824C534.203 180.673 491.668 177.481 451.626 189.769L451.62 189.771C381.834 211.289 321.466 241.777 277.821 274.78C255.999 291.28 238.256 308.487 225.613 325.614Z" fill="#142A38"/>
<path fill-rule="evenodd" clip-rule="evenodd" d="M340.359 99.4069C339.065 101.666 339.848 104.545 342.107 105.839C384.595 130.171 427.867 180.916 456.789 247.492C476.049 291.826 485.965 336.071 487.125 374.796C488.288 413.615 480.648 446.426 465.337 468.346C463.846 470.48 464.368 473.418 466.502 474.909C468.636 476.399 471.574 475.878 473.065 473.744C489.957 449.56 497.744 414.476 496.547 374.514C495.347 334.46 485.117 289.041 465.435 243.736C435.944 175.852 391.503 123.265 346.791 97.6592C344.532 96.3656 341.652 97.1481 340.359 99.4069Z" fill="#142A38"/>
<path fill-rule="evenodd" clip-rule="evenodd" d="M234.238 163.31C233.817 165.879 235.557 168.303 238.126 168.724C294.666 178.004 359.379 186.499 413.304 169.612C434.972 163.15 448.073 153.613 455.261 142.63C462.469 131.616 463.286 119.83 461.759 109.804C461.367 107.231 458.963 105.462 456.389 105.855C453.816 106.247 452.048 108.65 452.44 111.224C453.729 119.684 452.957 128.937 447.374 137.468C441.774 146.025 430.888 154.536 410.58 160.588L410.517 160.607C359.028 176.742 296.469 168.748 239.652 159.423C237.084 159.001 234.66 160.742 234.238 163.31ZM371.553 344.191C391.57 301.567 417.348 265.971 462.504 250.154L462.718 250.079L462.716 250.074C482.298 242.139 503.853 240.445 524.434 245.225C545.015 250.005 563.617 261.025 577.697 276.778C579.432 278.719 582.411 278.886 584.352 277.151C586.293 275.417 586.46 272.437 584.725 270.497C569.351 253.295 549.039 241.263 526.566 236.043C504.13 230.833 480.635 232.667 459.281 241.295C410.638 258.375 383.427 296.732 363.021 340.184C354.096 359.188 346.388 379.359 338.773 399.286C337.684 402.136 336.596 404.981 335.507 407.817C326.773 430.571 317.937 452.774 307.201 472.836C305.973 475.131 306.838 477.987 309.133 479.215C311.428 480.443 314.284 479.578 315.512 477.283C326.557 456.645 335.576 433.94 344.307 411.195C345.404 408.339 346.495 405.483 347.586 402.63C355.214 382.671 362.788 362.854 371.553 344.191Z" fill="#142A38"/>
</g>
<path fill-rule="evenodd" clip-rule="evenodd" d="M343.325 487C344.825 489.116 344.325 492.047 342.209 493.547L212.046 585.802C209.93 587.302 206.998 586.802 205.499 584.686C203.999 582.57 204.498 579.638 206.614 578.139L336.778 485.884C338.894 484.384 341.825 484.883 343.325 487Z" fill="#142A38"/>
<path fill-rule="evenodd" clip-rule="evenodd" d="M430.521 485.268C430.941 485.879 430.785 486.715 430.174 487.134L304.037 573.686C303.425 574.105 302.59 573.95 302.171 573.339C301.752 572.727 301.907 571.892 302.518 571.473L428.656 484.921C429.267 484.502 430.102 484.657 430.521 485.268Z" fill="#142A38"/>
<path fill-rule="evenodd" clip-rule="evenodd" d="M353.569 327.768C354.078 328.306 354.055 329.156 353.517 329.665C318.99 362.344 297.921 379.466 254.315 405.326C253.677 405.704 252.854 405.494 252.476 404.856C252.098 404.219 252.308 403.396 252.946 403.018C296.35 377.277 317.261 360.285 351.672 327.716C352.21 327.207 353.059 327.23 353.569 327.768Z" fill="#142A38"/>
<path fill-rule="evenodd" clip-rule="evenodd" d="M339.452 313.679C339.961 314.217 339.938 315.067 339.4 315.576C304.873 348.256 283.805 365.377 240.198 391.237C239.56 391.615 238.737 391.405 238.359 390.767C237.981 390.13 238.191 389.307 238.829 388.929C282.233 363.188 303.145 346.197 337.555 313.627C338.093 313.118 338.943 313.141 339.452 313.679Z" fill="#142A38"/>
<path fill-rule="evenodd" clip-rule="evenodd" d="M481.266 87.1325C481.646 86.4964 482.47 86.2891 483.106 86.6693C515.015 105.746 531.238 118.661 555.243 147.686C555.715 148.257 555.635 149.103 555.064 149.576C554.493 150.048 553.647 149.968 553.174 149.397C529.392 120.64 513.416 107.916 481.729 88.9729C481.093 88.5926 480.885 87.7686 481.266 87.1325Z" fill="#142A38"/>
<path fill-rule="evenodd" clip-rule="evenodd" d="M477.812 70.4725C478.132 69.8041 478.933 69.5218 479.601 69.8419C496.529 77.9492 523.172 94.1423 549.102 121.455C549.612 121.993 549.59 122.842 549.053 123.353C548.515 123.863 547.666 123.841 547.156 123.303C521.486 96.2648 495.125 80.2525 478.442 72.2624C477.774 71.9423 477.491 71.1409 477.812 70.4725Z" fill="#142A38"/>
<path fill-rule="evenodd" clip-rule="evenodd" d="M534.355 85.6441C534.817 85.0646 535.662 84.9694 536.241 85.4314C541.832 89.8888 544.845 92.4505 549.762 97.2635C550.292 97.7819 550.301 98.6315 549.782 99.1611C549.264 99.6907 548.414 99.6998 547.885 99.1814C543.051 94.4496 540.11 91.9488 534.568 87.5298C533.988 87.0678 533.893 86.2235 534.355 85.6441Z" fill="#142A38"/>
<path fill-rule="evenodd" clip-rule="evenodd" d="M389.83 46.2229C390.571 46.2229 391.172 46.8237 391.172 47.5648V65.0093C391.172 65.7504 390.571 66.3512 389.83 66.3512C389.089 66.3512 388.488 65.7504 388.488 65.0093V47.5648C388.488 46.8237 389.089 46.2229 389.83 46.2229Z" fill="#142A38"/>
<path fill-rule="evenodd" clip-rule="evenodd" d="M379.76 56.286C379.76 55.5449 380.361 54.9441 381.102 54.9441H398.547C399.288 54.9441 399.888 55.5449 399.888 56.286C399.888 57.0271 399.288 57.6279 398.547 57.6279H381.102C380.361 57.6279 379.76 57.0271 379.76 56.286Z" fill="#142A38"/>
<path fill-rule="evenodd" clip-rule="evenodd" d="M277.766 67.0227C278.507 67.0227 279.108 67.6235 279.108 68.3646V85.8091C279.108 86.5502 278.507 87.151 277.766 87.151C277.025 87.151 276.424 86.5502 276.424 85.8091V68.3646C276.424 67.6235 277.025 67.0227 277.766 67.0227Z" fill="#142A38"/>
<path fill-rule="evenodd" clip-rule="evenodd" d="M267.696 77.0858C267.696 76.3447 268.297 75.7439 269.038 75.7439H286.482C287.223 75.7439 287.824 76.3447 287.824 77.0858C287.824 77.8269 287.223 78.4277 286.482 78.4277H269.038C268.297 78.4277 267.696 77.8269 267.696 77.0858Z" fill="#142A38"/>
<path fill-rule="evenodd" clip-rule="evenodd" d="M185.179 132.103C185.92 132.103 186.521 132.703 186.521 133.444V150.889C186.521 151.63 185.92 152.231 185.179 152.231C184.438 152.231 183.837 151.63 183.837 150.889V133.444C183.837 132.703 184.438 132.103 185.179 132.103Z" fill="#142A38"/>
<path fill-rule="evenodd" clip-rule="evenodd" d="M175.109 142.169C175.109 141.428 175.709 140.827 176.451 140.827H193.895C194.636 140.827 195.237 141.428 195.237 142.169C195.237 142.91 194.636 143.511 193.895 143.511H176.451C175.709 143.511 175.109 142.91 175.109 142.169Z" fill="#142A38"/>
<path fill-rule="evenodd" clip-rule="evenodd" d="M210.755 201.105C211.184 201.709 211.042 202.546 210.438 202.976L105.1 277.786C104.496 278.215 103.658 278.073 103.229 277.469C102.8 276.865 102.942 276.027 103.546 275.598L208.884 200.787C209.489 200.358 210.326 200.5 210.755 201.105Z" fill="#142A38"/>
<path fill-rule="evenodd" clip-rule="evenodd" d="M247.324 153.467C247.753 154.072 247.611 154.909 247.007 155.338L141.669 230.149C141.065 230.578 140.227 230.436 139.798 229.832C139.369 229.227 139.511 228.39 140.115 227.961L245.453 153.15C246.057 152.721 246.895 152.863 247.324 153.467Z" fill="#142A38"/>
<path fill-rule="evenodd" clip-rule="evenodd" d="M195.017 422.894C196.536 424.997 196.062 427.932 193.959 429.451L38.2997 541.834C36.1967 543.352 33.2609 542.878 31.7426 540.775C30.2242 538.672 30.6982 535.736 32.8012 534.218L188.46 421.835C190.563 420.317 193.499 420.791 195.017 422.894Z" fill="#142A38"/>
<path fill-rule="evenodd" clip-rule="evenodd" d="M176.92 384.316C178.437 386.42 177.961 389.356 175.858 390.873L85.6157 455.955C83.5119 457.472 80.5764 456.996 79.0592 454.892C77.5419 452.789 78.0174 449.853 80.1212 448.336L170.363 383.254C172.467 381.737 175.402 382.213 176.92 384.316Z" fill="#142A38"/>
<path fill-rule="evenodd" clip-rule="evenodd" d="M194.709 308.509C196.22 310.618 195.737 313.552 193.628 315.063L64.4717 407.653C62.3636 409.164 59.4295 408.681 57.9182 406.572C56.4069 404.464 56.8908 401.53 58.9989 400.019L188.156 307.429C190.264 305.917 193.198 306.401 194.709 308.509Z" fill="#142A38"/>
<path fill-rule="evenodd" clip-rule="evenodd" d="M255.758 437.998C257.272 440.104 256.791 443.039 254.685 444.553L164.107 509.634C162.001 511.148 159.066 510.667 157.553 508.561C156.039 506.454 156.52 503.519 158.626 502.006L249.204 436.924C251.31 435.411 254.245 435.891 255.758 437.998Z" fill="#142A38"/>
<path fill-rule="evenodd" clip-rule="evenodd" d="M230.599 499.058C232.109 501.167 231.625 504.101 229.517 505.612L149.004 563.313C146.895 564.824 143.961 564.34 142.45 562.231C140.939 560.123 141.424 557.189 143.532 555.678L224.045 497.977C226.154 496.466 229.088 496.95 230.599 499.058Z" fill="#142A38"/>
<path fill-rule="evenodd" clip-rule="evenodd" d="M302.375 466.166C303.896 468.267 303.425 471.203 301.324 472.724L256.371 505.265C254.27 506.786 251.334 506.315 249.813 504.214C248.292 502.113 248.762 499.177 250.863 497.656L295.816 465.115C297.918 463.594 300.854 464.065 302.375 466.166Z" fill="#142A38"/>
<path fill-rule="evenodd" clip-rule="evenodd" d="M32.5406 485.019C30.5026 485.019 28.8504 486.671 28.8504 488.709C28.8504 490.747 30.5026 492.399 32.5406 492.399C34.5786 492.399 36.2308 490.747 36.2308 488.709C36.2308 486.671 34.5786 485.019 32.5406 485.019ZM26.1666 488.709C26.1666 485.189 29.0203 482.335 32.5406 482.335C36.0608 482.335 38.9146 485.189 38.9146 488.709C38.9146 492.229 36.0608 495.083 32.5406 495.083C29.0203 495.083 26.1666 492.229 26.1666 488.709Z" fill="#142A38"/>
<path fill-rule="evenodd" clip-rule="evenodd" d="M163.381 464.893C161.343 464.893 159.69 466.545 159.69 468.583C159.69 470.621 161.343 472.273 163.381 472.273C165.419 472.273 167.071 470.621 167.071 468.583C167.071 466.545 165.419 464.893 163.381 464.893ZM157.007 468.583C157.007 465.063 159.86 462.209 163.381 462.209C166.901 462.209 169.755 465.063 169.755 468.583C169.755 472.103 166.901 474.957 163.381 474.957C159.86 474.957 157.007 472.103 157.007 468.583Z" fill="#142A38"/>
<path fill-rule="evenodd" clip-rule="evenodd" d="M194.898 544.065C192.86 544.065 191.208 545.717 191.208 547.755C191.208 549.793 192.86 551.445 194.898 551.445C196.936 551.445 198.588 549.793 198.588 547.755C198.588 545.717 196.936 544.065 194.898 544.065ZM188.524 547.755C188.524 544.235 191.378 541.381 194.898 541.381C198.418 541.381 201.272 544.235 201.272 547.755C201.272 551.275 198.418 554.129 194.898 554.129C191.378 554.129 188.524 551.275 188.524 547.755Z" fill="#142A38"/>
<defs>
<clipPath id="clip0_1633_12317">
<rect width="401.895" height="401.895" fill="white" transform="translate(185.184 92.5164)"/>
</clipPath>
</defs>
</svg>
