<svg width="25" height="24" viewBox="0 0 25 24" fill="none" xmlns="http://www.w3.org/2000/svg">
<path d="M21.937 5.48532C21.651 3.13832 19.676 2.19532 17.845 2.30432C16.6982 2.36714 15.5504 2.41014 14.402 2.43332C13.242 2.46132 12.052 2.48632 11.002 2.50732C9.46458 2.53725 7.92724 2.57259 6.39003 2.61332C4.61403 2.66332 3.18203 3.80632 2.90603 5.39632C2.79603 6.03332 2.79203 6.67632 2.79903 7.39232C2.81903 9.47932 2.84903 11.5883 2.87903 13.6273L2.88303 13.8483L2.91703 16.3103C2.91903 16.4483 2.92403 16.5873 2.92903 16.7253V16.7363C2.94903 17.0793 2.94603 17.4243 2.91903 17.7663C2.82403 18.6823 3.17403 19.6593 3.85703 20.3783C4.61603 21.1783 5.69103 21.5843 6.88703 21.5233C8.19003 21.4563 9.52003 21.4693 10.807 21.4813L10.9 21.4823C12.426 21.4973 13.978 21.5353 15.481 21.5733L16.239 21.5933C16.367 21.6003 16.493 21.6193 16.617 21.6503C16.683 21.6633 16.747 21.6773 16.813 21.6883C16.8222 21.6904 16.8316 21.6914 16.841 21.6913H17.663C17.671 21.6913 17.679 21.6913 17.687 21.6893C17.852 21.6653 18.017 21.6433 18.181 21.6213L18.194 21.6203C18.563 21.5723 18.944 21.5223 19.316 21.4413C20.921 21.0933 22.28 19.4293 22.285 17.8073C22.285 17.4253 22.287 17.0433 22.289 16.6613V16.4693C22.297 14.3753 22.306 12.2103 22.261 10.0783C22.2295 8.54288 22.1214 7.00998 21.937 5.48532ZM21.045 17.6953C21.05 18.9473 19.958 20.1193 18.558 20.3633C17.486 20.5513 16.391 20.4873 15.331 20.4253C14.937 20.4033 14.531 20.3793 14.126 20.3683C13.6658 20.3546 13.2058 20.3352 12.746 20.3103L12.706 20.3073C12.51 20.2973 12.314 20.2873 12.12 20.2793H12.11C11.616 20.2793 11.121 20.2793 10.627 20.2773L8.88403 20.2753C8.11403 20.2753 7.48003 20.2773 6.89003 20.2803H6.86403C5.99903 20.2803 5.28503 20.0243 4.80003 19.5383C4.29603 19.0333 4.03303 18.2783 4.04003 17.3563C4.05121 15.194 4.04988 13.0316 4.03603 10.8693C4.03103 9.65732 4.02603 8.40332 4.02603 7.16532C4.01374 6.4517 4.17504 5.74579 4.49603 5.10832C4.85903 4.40832 5.50903 4.03832 6.54103 3.94032C7.76312 3.8178 8.98927 3.73975 10.217 3.70632C13.278 3.63932 15.634 3.61532 17.855 3.62932C19.475 3.63932 20.411 4.40132 20.716 5.95932C21.054 7.68632 21.049 9.46232 21.044 11.1793V11.3253C21.036 13.7613 21.038 15.7853 21.045 17.6953Z" fill="#39685C"/>
<path d="M12.9558 7.41758C11.9408 7.39858 11.0368 7.60558 10.2688 8.02858C9.3438 8.53858 8.3588 9.22558 8.0638 10.4636C7.6838 12.0536 7.8568 13.5836 8.5758 15.0116C9.0908 16.0336 9.8988 16.6626 10.9108 16.8306C11.5168 16.9356 12.1298 16.9906 12.7448 16.9966C12.9378 16.9966 13.1288 16.9896 13.3128 16.9766C14.6758 16.8776 15.7578 16.3316 16.5308 15.3516C17.7268 13.8356 17.9338 12.0986 17.1488 10.1906C16.3888 8.34558 14.9358 7.38558 12.9558 7.41758ZM16.2798 12.2936C16.2858 14.3676 14.8958 15.7516 12.7378 15.8206C12.189 15.8298 11.6407 15.7819 11.1018 15.6776C10.4118 15.5546 9.8878 15.1386 9.5448 14.4436C8.9728 13.2836 8.8338 12.0856 9.1318 10.8816C9.3618 9.95358 10.0398 9.27258 11.2028 8.80158C11.6354 8.62767 12.0976 8.53938 12.5638 8.54158C12.9678 8.54258 13.3698 8.60158 13.7568 8.71658C15.2848 9.16158 16.2748 10.5656 16.2798 12.2936Z" fill="#39685C"/>
<path d="M18.1868 5.3988H18.1638C17.9378 5.4046 17.7227 5.4968 17.5628 5.65641C17.4028 5.81602 17.3101 6.0309 17.3038 6.2568C17.2982 6.36678 17.3151 6.47674 17.3532 6.58003C17.3914 6.68333 17.4501 6.77782 17.5258 6.8578C17.6048 6.93837 17.6993 7.00207 17.8036 7.04504C17.908 7.08801 18.0199 7.10936 18.1328 7.1078C18.3552 7.10065 18.5664 7.00819 18.7226 6.84958C18.8788 6.69098 18.968 6.47837 18.9718 6.2558C18.9788 5.8118 18.6118 5.4108 18.1868 5.3988Z" fill="#39685C"/>
</svg>
