<svg width="325" height="120" viewBox="0 0 325 120" fill="none" xmlns="http://www.w3.org/2000/svg">
<path d="M231.85 57.8436C230.282 64.2738 232.255 71.4976 234.764 77.0818C236.437 80.6986 238.488 84.2006 240.661 87.4239C242.407 89.998 244.227 92.477 246.17 94.8444C247.583 96.5627 253.717 92.2277 252.953 90.6046C252.308 89.1782 251.659 87.765 251.027 86.3484C250.477 85.1253 250.171 83.7875 249.433 82.6824C237.003 64.0639 254.343 45.1471 253.648 39.7989C253.648 39.7989 252.506 30.2863 241.07 36.733C235.241 40.0186 232.179 56.4926 231.85 57.8403V57.8436Z" fill="#233D4C" stroke="black" stroke-width="1.52371" stroke-miterlimit="10"/>
<path d="M245.27 95.6319C245.264 96.0123 245.251 96.3959 245.353 96.7631C245.488 97.2386 245.827 97.6518 246.265 97.8748C246.436 97.9633 246.62 98.0223 246.811 98.042C247.519 98.1076 248.168 97.5534 248.448 96.9009C248.728 96.2483 249.209 95.2154 249.195 94.5072C249.182 93.8317 248.026 90.4116 247.625 89.8476C245.524 86.903 242.402 88.4147 244.052 91.756C244.2 92.0544 244.391 92.3299 244.592 92.5955C245.445 93.7366 245.277 95.0875 245.27 95.6352V95.6319Z" fill="#F9F3CF" stroke="black" stroke-width="1.21699" stroke-miterlimit="10"/>
<path d="M252.714 87.3688C253.383 88.1984 253.962 89.9757 253.867 92.1858C253.804 93.7138 253.175 95.2648 252.662 95.3468C252.365 95.396 252.148 95.032 252.02 94.7631C251.891 94.4942 251.842 94.1958 251.789 93.9007C251.493 92.2284 251.051 90.579 250.465 88.9854C250.34 88.6411 250.205 88.2771 250.251 87.9132C250.311 87.4672 250.637 87.0999 250.982 86.8081C251.522 86.3523 251.763 86.1884 252.711 87.3655L252.714 87.3688Z" fill="#F9F3CF" stroke="black" stroke-width="1.21699" stroke-miterlimit="10"/>
<path d="M248.576 95.7801C248.559 96.003 248.563 96.226 248.615 96.4424C249.103 98.4459 250.986 96.6785 251.226 96.2621C252.955 93.229 250.943 89.881 250.393 88.7826C249.409 86.8151 248.615 87.2873 248.082 88.1694C247.548 89.0514 247.453 90.1598 247.776 91.1533C248.217 92.5174 248.668 94.6389 248.576 95.7833V95.7801Z" fill="#F9F3CF" stroke="black" stroke-width="1.21699" stroke-miterlimit="10"/>
<path d="M297.241 84.4691C297.494 84.8691 297.761 85.2691 297.889 85.7249C298.054 86.3152 297.962 86.9743 297.643 87.4989C297.517 87.7022 297.359 87.8858 297.168 88.0301C296.457 88.558 295.407 88.3875 294.686 87.8727C293.964 87.3579 292.779 86.5709 292.331 85.8102C291.906 85.0822 290.3 80.3866 290.968 79.8423C291.261 79.6029 296.042 80.3899 296.042 80.3899C295.65 82.3573 296.849 83.8526 297.241 84.4723V84.4691Z" fill="#F9F3CF" stroke="black" stroke-width="1.52371" stroke-linejoin="round"/>
<path d="M283.943 80.4954C283.772 81.8103 284.315 84.0728 285.853 86.3649C286.917 87.9487 288.596 89.1914 289.195 88.9488C289.541 88.8078 289.538 88.2831 289.502 87.9126C289.465 87.542 289.321 87.1945 289.186 86.8469C288.408 84.8762 287.809 82.8399 287.388 80.7642C287.296 80.315 287.207 79.8428 286.917 79.4887C286.561 79.0526 285.978 78.8722 285.422 78.7837C284.549 78.646 284.19 78.6263 283.943 80.4921V80.4954Z" fill="#F9F3CF" stroke="black" stroke-width="1.52371" stroke-miterlimit="10"/>
<path d="M293.48 86.2278C293.691 86.6016 294.179 87.323 294.277 87.7394C294.775 89.8905 291.821 89.2674 291.314 88.9854C287.501 86.877 287.461 82.0175 287.33 80.4927C286.885 75.3249 291.419 79.8992 291.419 79.8992C291.442 81.0075 292.453 84.421 293.48 86.2278Z" fill="#F9F3CF" stroke="black" stroke-width="1.52371" stroke-miterlimit="10"/>
<path d="M282.121 59.6731C281.35 64.795 284.007 80.3017 284.007 80.3017C287.975 81.3477 292.002 81.3838 296.092 80.3017C296.092 80.3017 292.407 61.27 296.579 58.8173C298.397 57.7483 294.334 46.7963 294.334 46.7963C294.334 46.7963 283.388 51.2263 282.121 59.6731Z" fill="#233D4C" stroke="black" stroke-width="1.52371" stroke-linejoin="round"/>
<path d="M271.43 62.8807C271.496 62.015 271.783 61.1657 272.428 60.323C275.355 56.5062 278.599 53.155 283.13 51.3187C288.052 49.3218 293.397 48.3577 298.708 48.5217C303.344 48.666 308.03 49.689 312.011 52.0664C317.658 55.4372 321.069 62.1888 321.853 68.5698C322.946 77.479 317.23 83.1452 309.703 86.6571C311.369 88.4868 313.618 89.9394 315.393 91.7265C317.296 93.6415 319.048 95.7139 320.549 97.9567C321.935 99.6586 323.394 101.57 323.322 103.761C323.246 105.977 321.603 107.823 319.874 109.224C317.865 110.85 315.501 112.204 312.92 112.365C310.358 112.526 307.855 111.496 305.699 110.112C302.633 108.141 300.107 105.462 297.615 102.81C298.184 105.784 298.721 109.273 296.795 111.617C295.445 113.26 293.232 113.929 291.115 114.178C289.521 114.368 287.911 114.368 286.311 114.27C283.693 114.106 280.808 113.503 279.294 111.371C278.085 109.676 278.059 107.446 278.085 105.367C278.204 95.8811 278.47 86.2079 275.721 77.1249C274.829 74.177 273.692 71.3078 272.734 68.3797C272.115 66.4876 271.299 64.6579 271.434 62.8807H271.43Z" fill="#FCCA47" stroke="black" stroke-width="3.29808" stroke-linejoin="round"/>
<path d="M291.538 70.2359C291.518 70.6884 291.502 71.1474 291.614 71.5835C292.476 74.9643 296.204 76.9678 298.871 74.2297C301.14 71.8983 301.09 68.0553 298.347 66.0387C296.938 64.9992 294.277 64.5106 292.687 65.4714C291.09 66.4354 291.607 68.6881 291.535 70.2391L291.538 70.2359Z" fill="black"/>
<path d="M232.391 57.0804C234.657 55.4507 237.242 54.2899 239.906 53.4472C250.509 50.0927 262.846 52.0241 271.385 59.1232C277.341 64.0746 279.762 71.1344 281.322 78.4336C282.919 85.9066 282.097 93.8878 278.952 100.859C276.212 106.938 269.531 111.834 263.274 113.769C246.122 119.078 231.828 111.152 225.595 96.8029C218.255 79.9026 223.876 67.5635 225.486 64.8681C227.278 61.8711 229.536 59.1298 232.388 57.0771L232.391 57.0804Z" fill="#FCCA47" stroke="#231F20" stroke-width="3.29808" stroke-linejoin="round"/>
<path d="M245.539 83.5496C244.864 86.3007 245.835 88.9437 249.108 90.0553C252.888 91.3407 256.214 87.9042 256.57 84.2776C256.738 82.5659 256.244 80.7919 254.742 79.8017C252.115 78.0638 248.486 78.0342 246.704 80.8674C246.155 81.7429 245.759 82.6544 245.539 83.5529V83.5496Z" fill="black" stroke="#231F20" stroke-width="0.329808" stroke-miterlimit="10"/>
<path d="M180.558 54.9195C188.408 52.8504 198.049 51.4502 205.557 54.5326C234.807 66.5405 234.28 110.168 207.045 117.766C190.993 120.517 183.907 112.621 183.89 112.788C183.828 113.388 180.156 63.2712 180.558 54.9195Z" fill="#FCCA47" stroke="black" stroke-width="3.29808" stroke-linejoin="round"/>
<path d="M200.064 84.5779L200.532 90.0113C200.532 90.0113 206.221 91.0966 205.754 86.9847C205.286 82.8728 200.064 84.5779 200.064 84.5779Z" fill="#FCCA47" stroke="black" stroke-width="3.29808" stroke-linejoin="round"/>
<path d="M169.065 92.5565C173.665 90.3891 180.52 88.9889 185.206 92.0876C187.952 93.9009 188.775 97.0062 188.69 99.9606C188.574 103.902 187.774 108.132 186.415 111.841C185.509 114.313 183.942 115.956 181.139 116.628C174.557 118.205 151.992 116.52 149.288 113.969C147.691 112.464 142.452 59.6446 145.297 58.2773C153.016 54.5719 164.224 55.2507 166.002 57.6378C166.839 58.7593 171.567 83.3325 169.065 92.5565Z" fill="#FCCA47" stroke="black" stroke-width="3.29808" stroke-linejoin="round"/>
<path d="M135.408 91.8766C135.98 92.1061 137.564 91.5749 138.193 91.4864C139.194 91.3454 140.195 91.2077 141.193 91.0667C142.619 90.8667 144.045 90.6407 145.484 90.5719C149.744 90.3653 153.093 92.48 154.147 96.7034C154.964 99.9726 154.74 104.2 153.818 107.436C153.34 109.115 152.316 110.4 151.058 111.574C147.578 114.814 143.551 116.519 138.779 116.84C133.508 117.197 128.068 117.286 122.908 115.981C118.792 114.938 114.795 112.253 113.556 108.21C113.063 106.603 113.033 104.898 113.01 103.222C112.954 99.5725 112.898 95.9233 112.842 92.2737C112.697 82.8956 112.559 73.4647 113.985 64.1948C114.225 62.634 115.73 61.5719 117.192 60.9587C120.955 59.3749 127.021 56.7255 130.903 59.4799C134.245 61.8506 134.163 67.2414 134.433 70.8549C134.927 77.495 134.216 84.0957 134.884 90.7162C134.923 91.1064 135.042 91.7392 135.408 91.8835V91.8766Z" fill="#FCCA47" stroke="black" stroke-width="3.29808" stroke-linejoin="round"/>
<path d="M92.6701 111.152C92.7919 112.264 92.9401 113.425 93.5888 114.336C93.9938 114.904 94.5668 115.33 95.1693 115.681C98.3634 117.543 102.311 117.366 106.003 117.087C108.466 116.9 111.232 116.536 112.723 114.576C114.225 112.602 114.511 84.841 114.208 81.6669C114.034 79.8208 114.113 77.9419 113.747 76.122C113.382 74.3022 112.48 72.4724 110.86 71.5543C109.618 70.8493 108.123 70.7706 106.694 70.7608C103.737 70.7345 95.9399 71.997 94.9323 72.0331C89.7691 72.2134 89.025 76.0696 89.2423 77.955C89.5024 80.2143 91.8502 103.656 92.6668 111.149L92.6701 111.152Z" fill="#FCCA47" stroke="black" stroke-width="3.29808" stroke-linejoin="round"/>
<path d="M95.4316 55.7851C96.3174 55.408 97.2196 55.149 98.0823 55.0277C102.593 54.3948 108.59 56.5164 109.597 61.2087C111.79 71.4295 95.9387 77.7483 90.9863 69.5801C87.7462 64.2353 89.8997 58.1329 95.4316 55.7819V55.7851Z" fill="#FCCA47" stroke="black" stroke-width="3.29808" stroke-linejoin="round"/>
<path d="M47.8049 58.0238L50.3041 114.404C50.2481 115.024 58.546 116.365 63.5478 116.935C66.7319 117.299 68.8031 108.787 68.5397 100.402C68.5397 100.402 75.0397 111.869 80.3905 113.837C83.9039 115.129 92.7385 111.167 91.9252 106.239C89.6894 92.6998 76.6202 81.3018 76.6202 81.3018C76.6202 81.3018 95.7218 63.4113 84.2036 55.1513C73.2879 47.3242 64.3413 65.7099 64.3413 65.7099C64.3413 65.7099 66.4455 53.6134 63.3766 51.6919C58.2892 49.2457 47.8082 58.0238 47.8082 58.0238H47.8049Z" fill="#FCCA47" stroke="black" stroke-width="3.29808" stroke-linejoin="round"/>
<path d="M32.6783 70.7343C32.6783 70.7343 36.5375 66.6289 43.8179 69.7735C51.0983 72.9181 51.0325 56.0736 35.0459 50.4697C17.8541 44.4428 7.06684 55.3621 3.9749 61.6513C1.65018 66.383 -0.490148 78.6335 13.2968 81.965C13.3067 81.965 13.3199 81.9716 13.3298 81.9749C15.5162 82.5094 17.5083 83.6931 19.0066 85.3687C27.0443 94.3566 11.0314 102.951 5.83863 90.8283C5.83863 90.8283 -4.51067 101.921 8.55848 113.362C21.6276 124.803 52.6789 114.234 50.7493 93.0974C48.8197 71.9606 32.6816 70.7375 32.6816 70.7375L32.6783 70.7343Z" fill="#FCCA47" stroke="black" stroke-width="3.29808" stroke-linejoin="round"/>
<path d="M283.061 50.521C275.531 50.521 266.834 49.0651 258.563 47.4912C253.186 46.4681 247.861 41.943 245.905 36.7261C245.026 34.3815 245.441 31.5813 246.965 29.5909C248.342 27.794 250.288 26.9808 252.007 26.2627C252.843 25.9118 253.633 25.5806 254.335 25.1609C256.864 23.6394 259.113 21.6359 260.976 19.8784C261.404 19.475 261.832 19.0684 262.261 18.6618L262.992 17.9667C264.18 16.842 265.303 15.6385 266.393 14.4745C268.777 11.9201 271.24 9.28374 274.559 7.254C279.528 4.2176 285.633 2.54199 291.751 2.54199C295.07 2.54199 298.225 3.03385 301.132 4.00773C309.157 6.69328 315.795 13.7433 318.884 22.8689C320.326 27.1218 320.635 31.4731 319.753 35.116C318.683 39.5493 315.927 42.8644 311.774 44.7073C311.264 44.9335 310.714 45.1467 310.135 45.3434C300.819 48.511 291.27 50.3932 283.94 50.5112C283.651 50.5145 283.358 50.5178 283.065 50.5178L283.061 50.521Z" fill="#233D4C"/>
<path d="M291.746 4.18531C294.791 4.18531 297.808 4.63126 300.6 5.56579C308.717 8.28085 314.637 15.4849 317.318 23.3973C319.814 30.7686 319.106 39.6647 311.101 43.2159C310.61 43.4323 310.11 43.6258 309.603 43.7996C301.795 46.4523 292.062 48.7509 283.912 48.8788C283.632 48.8821 283.349 48.8854 283.063 48.8854C275.44 48.8854 266.401 47.318 258.87 45.8851C254.349 45.0259 249.301 41.1009 247.444 36.1561C246.756 34.3231 247.079 32.1458 248.271 30.5915C249.97 28.3749 252.867 27.9617 255.179 26.5714C257.711 25.0467 259.96 23.0956 262.104 21.0757C262.779 20.4396 263.451 19.8002 264.122 19.1608C267.939 15.5472 270.81 11.4714 275.413 8.65466C280.125 5.77565 285.993 4.18531 291.742 4.18531M291.742 0.90625C285.321 0.90625 278.91 2.6671 273.688 5.8609C270.181 8.0054 267.636 10.7303 265.179 13.3634C264.06 14.5635 263.003 15.6948 261.85 16.7867L261.076 17.5212C260.665 17.9147 260.25 18.3049 259.835 18.6951C258.034 20.3937 255.871 22.325 253.473 23.7645C252.877 24.122 252.14 24.4302 251.359 24.7581C249.548 25.5156 247.293 26.4599 245.65 28.6044C243.76 31.0703 243.266 34.4051 244.356 37.307C246.502 43.0224 252.344 47.9836 258.248 49.1084C266.602 50.6954 275.39 52.1677 283.056 52.1677C283.359 52.1677 283.659 52.1677 283.958 52.1612C291.453 52.0431 301.186 50.1249 310.66 46.9048C311.295 46.6884 311.875 46.4622 312.434 46.2162C317.067 44.1603 320.149 40.4582 321.341 35.5101C322.293 31.5687 321.967 26.896 320.429 22.3546C317.176 12.7469 310.152 5.3133 301.641 2.4638C298.565 1.43418 295.233 0.912808 291.739 0.912808L291.742 0.90625Z" fill="black"/>
<path d="M264.332 99.3176C261.984 99.3176 258.632 97.0255 257.42 95.1302C256.623 93.8842 256.782 92.93 257.055 92.3496L257.703 90.9232C258.128 89.9886 258.553 89.0541 258.968 88.1229L259.037 87.9655C259.182 87.6277 259.314 87.2703 259.452 86.8932C259.778 86.0046 260.114 85.0897 260.697 84.2175C269.031 71.7341 262.577 59.8476 258.306 51.9811C257.937 51.2991 257.585 50.6531 257.259 50.0366C254.885 45.5345 256.021 39.9994 259.959 36.8745C261.51 35.6416 263.186 35.0186 264.934 35.0186C267.121 35.0186 269.337 36.0056 271.527 37.95C276.845 42.6784 280.559 57.0604 281.25 59.8935C283.025 67.1763 280.592 74.9476 278.237 80.1875C276.64 83.6437 274.612 87.1982 272.205 90.7756C270.305 93.5727 268.474 96.0418 266.601 98.3207C266.071 98.9634 265.264 99.3176 264.329 99.3176H264.332Z" fill="#233D4C"/>
<path d="M264.936 36.6577C266.546 36.6577 268.384 37.3529 270.432 39.1728C275.549 43.7241 279.322 58.9324 279.652 60.2801C281.219 66.7103 279.247 73.9341 276.737 79.5183C275.065 83.1351 273.013 86.6371 270.84 89.8604C269.095 92.4345 267.274 94.9135 265.331 97.2809C265.104 97.5564 264.755 97.6777 264.333 97.6777C262.127 97.6777 257.906 94.4052 258.548 93.0444C259.193 91.618 259.842 90.2047 260.474 88.7882C261.024 87.5651 261.33 86.2272 262.068 85.1222C271.693 70.7042 262.868 57.142 258.719 49.2723C256.73 45.5014 257.642 40.809 260.988 38.153C262.094 37.2742 263.418 36.6545 264.939 36.6545M264.939 33.3752C262.809 33.3752 260.79 34.1198 258.937 35.5888C254.379 39.2023 253.062 45.5964 255.805 50.797C256.134 51.4233 256.487 52.0726 256.859 52.7579C258.973 56.6501 261.604 61.4966 262.648 66.8185C263.823 72.8028 262.736 78.1935 259.325 83.3056C258.634 84.3418 258.248 85.3976 257.906 86.3289C257.774 86.683 257.652 87.024 257.524 87.3224L257.465 87.4536C257.05 88.3816 256.628 89.3063 256.207 90.2375C255.989 90.7195 255.769 91.2016 255.552 91.6836C255.189 92.4738 254.788 94.0642 256.032 96.0119C257.524 98.3466 261.393 100.957 264.333 100.957C265.772 100.957 267.034 100.389 267.88 99.3599C269.786 97.0383 271.647 94.5331 273.57 91.6967C276.033 88.0406 278.101 84.4074 279.727 80.8889L279.734 80.8725L279.741 80.8561C282.197 75.3834 284.732 67.2382 282.849 59.5062C282.651 58.6996 281.591 54.4433 279.938 49.8264C277.61 43.3175 275.216 39.0318 272.625 36.7266C270.125 34.5034 267.541 33.3785 264.936 33.3785L264.939 33.3752Z" fill="black"/>
<path d="M265.349 105.035C265.356 105.415 265.369 105.799 265.267 106.166C265.132 106.642 264.793 107.055 264.355 107.278C264.184 107.366 263.999 107.425 263.808 107.445C263.1 107.511 262.452 106.956 262.172 106.304C261.892 105.651 261.411 104.619 261.424 103.91C261.438 103.235 262.593 99.8147 262.995 99.2507C265.096 96.3061 268.217 97.8177 266.568 101.159C266.42 101.458 266.229 101.733 266.028 101.999C265.175 103.14 265.343 104.491 265.349 105.038V105.035Z" fill="black"/>
<path d="M255.944 93.8372C255.275 94.6668 254.696 96.4441 254.791 98.6541C254.854 100.182 255.483 101.733 255.996 101.815C256.293 101.864 256.51 101.5 256.638 101.231C256.767 100.963 256.816 100.664 256.869 100.369C257.165 98.6968 257.606 97.0474 258.193 95.4538C258.318 95.1095 258.453 94.7455 258.407 94.3815C258.347 93.9356 258.021 93.5683 257.676 93.2765C257.136 92.8207 256.895 92.6568 255.947 93.8339L255.944 93.8372Z" fill="black"/>
<path d="M260.559 104.701C260.582 104.924 260.578 105.147 260.532 105.364C260.088 107.377 258.165 105.652 257.918 105.239C256.123 102.245 258.063 98.8516 258.589 97.7433C259.531 95.7562 260.335 96.2087 260.888 97.0809C261.441 97.9531 261.56 99.0582 261.26 100.058C260.848 101.432 260.443 103.56 260.559 104.705V104.701Z" fill="black"/>
<path d="M231.342 55.7258C231.342 55.7258 218.2 53.8207 216.313 41.8128C214.427 29.805 221.483 19.5022 231.365 15.0984C241.246 10.6947 250.845 12.7474 255.159 15.6297C259.475 18.5119 269.808 27.795 262.91 42.9408C256.034 54.3519 242.063 56.3456 239.327 56.3259C236.59 56.3029 231.342 55.7258 231.342 55.7258Z" fill="#233D4C" stroke="black" stroke-width="3.29808" stroke-miterlimit="10"/>
<path d="M233.656 50.6415C228.559 50.6415 224.597 49.0839 221.881 46.0082C221.782 45.8967 221.686 45.7852 221.594 45.6704C220.373 44.1916 219.5 42.5717 219 40.8666C217.699 36.4301 219.151 32.364 220.597 29.7375C222.177 26.865 224.578 24.2385 226.863 22.881C228.71 21.7858 230.857 21.2283 233.251 21.2283C234.354 21.2283 235.332 21.3529 236.076 21.4874C237.904 18.5723 242.629 17.0574 246.952 17.0574C253.571 17.0574 258.793 20.1364 260.92 25.2911C260.943 25.3501 260.966 25.4124 260.983 25.4747C261.2 26.2453 261.365 27.0191 261.473 27.7733C261.776 29.826 261.684 31.8361 261.203 33.7445C258.612 44.0211 245.754 48.2347 244.588 48.5954C243.943 48.8446 239.072 50.6415 233.653 50.6415H233.656Z" fill="#F9F3CF"/>
<path d="M246.957 18.6957C251.9 18.6957 257.257 20.7123 259.404 25.9129C259.605 26.631 259.753 27.3294 259.852 28.0082C260.138 29.9527 260.02 31.7266 259.615 33.3432C257.155 43.0983 244.056 47.0463 244.056 47.0463C244.056 47.0463 239.111 49.0006 233.661 49.0006C229.901 49.0006 225.903 48.0694 223.121 44.9248C223.038 44.8297 222.956 44.7313 222.874 44.6329C221.738 43.2525 221.003 41.8326 220.585 40.4062C218.54 33.4285 224.151 26.4047 227.711 24.2865C229.575 23.1781 231.583 22.8666 233.256 22.8666C235.429 22.8666 237.036 23.3946 237.036 23.3946C237.688 20.6238 242.127 18.6957 246.957 18.6957ZM246.957 15.4166C242.687 15.4166 237.84 16.7807 235.337 19.7155C234.715 19.64 234.01 19.5876 233.253 19.5876C230.559 19.5876 228.126 20.2204 226.022 21.4697C223.499 22.9683 220.868 25.8342 219.156 28.946C216.868 33.1038 216.268 37.3829 217.421 41.3211C217.984 43.2426 218.962 45.0527 220.325 46.7086C220.424 46.8299 220.529 46.9545 220.638 47.0791C223.644 50.4828 228.146 52.2764 233.658 52.2764C239.17 52.2764 244.247 50.4762 245.136 50.1417C246.704 49.6466 260.036 45.1248 262.806 34.14C263.339 32.025 263.441 29.8018 263.109 27.5327C262.99 26.7097 262.809 25.867 262.575 25.0308C262.539 24.9062 262.499 24.7849 262.45 24.6635C261.163 21.5452 258.848 19.0498 255.752 17.4431C253.194 16.115 250.151 15.4133 246.961 15.4133L246.957 15.4166Z" fill="black"/>
<path d="M220.581 40.4067C223.406 35.7963 230.051 26.2413 234.15 30.7992C237.888 34.9569 227.176 41.6068 223.119 44.9252L220.584 40.4099L220.581 40.4067Z" fill="black"/>
<path d="M259.851 28.0086C260.138 29.9531 260.019 31.727 259.614 33.3436C253.868 32.9796 243.101 32.9796 243.815 27.861C244.625 22.0407 254.692 25.7165 259.855 28.0086H259.851Z" fill="black"/>
<path d="M228.8 33.2478C228.859 34.0347 229.149 34.8151 229.682 35.3528C230.222 35.8972 231.075 36.1923 231.905 36.0054C233.328 35.6807 234.338 34.6183 234.338 33.3035C234.338 32.733 234.266 32.0936 234.012 31.582C233.459 30.4704 231.981 29.8933 230.641 30.1917C229.728 30.395 229.132 31.1689 228.918 31.9624C228.81 32.3657 228.77 32.8084 228.8 33.2478Z" fill="#FDFDFD" stroke="black" stroke-width="1.52371" stroke-miterlimit="10" stroke-linecap="round"/>
<path d="M231.713 34.4953C232.352 34.4953 232.869 33.9802 232.869 33.3444C232.869 32.7088 232.352 32.1935 231.713 32.1935C231.075 32.1935 230.557 32.7088 230.557 33.3444C230.557 33.9802 231.075 34.4953 231.713 34.4953Z" fill="black"/>
<path d="M228.8 33.2478C228.859 34.0347 234.266 32.0936 234.012 31.582C233.459 30.4704 231.981 29.8933 230.641 30.1917C229.728 30.395 229.132 31.1689 228.918 31.9624C228.81 32.3657 228.77 32.8084 228.8 33.2478Z" fill="#233D4C" stroke="black" stroke-width="1.52371" stroke-miterlimit="10" stroke-linecap="round"/>
<path d="M249.293 27.0223C249.688 27.7076 249.885 28.5176 249.744 29.2586C249.602 30.0095 249.062 30.7309 248.265 31.0359C246.905 31.5573 245.47 31.2425 244.732 30.1505C244.413 29.6784 244.113 29.1078 244.037 28.5405C243.873 27.3109 244.775 26.0091 246.056 25.5107C246.928 25.1729 247.854 25.4844 248.476 26.0189C248.792 26.2911 249.075 26.6354 249.293 27.019V27.0223Z" fill="#FDFDFD" stroke="black" stroke-width="1.52371" stroke-miterlimit="10" stroke-linecap="round"/>
<path d="M247.089 29.8223C247.727 29.8223 248.245 29.307 248.245 28.6713C248.245 28.0357 247.727 27.5204 247.089 27.5204C246.45 27.5204 245.933 28.0357 245.933 28.6713C245.933 29.307 246.45 29.8223 247.089 29.8223Z" fill="black"/>
<path d="M249.293 27.0223C249.688 27.7076 244.11 29.1045 244.034 28.5405C243.869 27.3109 244.771 26.0091 246.052 25.5107C246.925 25.1729 247.85 25.4844 248.473 26.0189C248.789 26.2911 249.072 26.6354 249.289 27.019L249.293 27.0223Z" fill="#233D4C" stroke="black" stroke-width="1.52371" stroke-miterlimit="10" stroke-linecap="round"/>
<path d="M244.052 47.0462C244.052 47.0462 263.661 41.1406 259.403 25.9126C255.159 15.6295 238.359 17.7871 237.035 23.3943C237.035 23.3943 231.997 21.7417 227.707 24.2895C223.416 26.8373 216.162 36.4975 222.87 44.6328C229.577 52.7681 244.049 47.0462 244.049 47.0462H244.052Z" stroke="black" stroke-width="1.52371" stroke-linecap="round" stroke-linejoin="round"/>
<path d="M237.847 34.2709C237.946 36.3695 241.785 36.7302 242.111 34.6808C242.279 33.6184 242.286 32.3887 241.012 32.0116C239.991 31.7133 237.795 33.1364 237.847 34.2709Z" fill="black"/>
<path d="M302.712 88.2016C302.505 88.4836 302.291 88.7623 302.172 89.0902C302.021 89.5165 302.054 90.0051 302.261 90.4051C302.343 90.5592 302.449 90.7035 302.58 90.8183C303.078 91.2413 303.855 91.1691 304.411 90.8281C304.968 90.4871 305.88 89.969 306.245 89.4312C306.594 88.9197 308.014 85.5521 307.549 85.116C307.345 84.9258 303.795 85.2603 303.795 85.2603C303.983 86.726 303.028 87.7622 302.706 88.1983L302.712 88.2016Z" fill="black"/>
<path d="M315.785 84.2706C316.441 87.5103 314.165 90.3008 313.497 90.8057C313.266 90.9795 313.023 91.1467 312.746 91.2254C312.47 91.3041 312.147 91.2812 311.923 91.1041C311.709 90.9336 311.613 90.6483 311.607 90.3762C311.6 90.104 311.673 89.8351 311.742 89.5695C312.127 88.0612 312.381 86.5167 312.499 84.9624C312.526 84.6247 312.549 84.2739 312.726 83.9886C312.947 83.6377 313.355 83.4541 313.754 83.3393C314.379 83.159 315.512 82.9163 315.785 84.2738V84.2706Z" fill="black"/>
<path d="M307.536 90.3004C307.414 90.5923 307.125 91.1628 307.092 91.4776C306.924 93.0942 308.992 92.3203 309.37 92.1203C310.855 91.3268 311.517 89.3069 311.619 88.1363C311.949 84.3326 310.77 84.2342 310.701 84.1981C310.256 83.9719 308.791 85.8114 308.791 85.8114C308.876 86.6246 308.126 88.8904 307.54 90.3004H307.536Z" fill="black"/>
<path d="M309.029 84.4836C307.382 84.4836 305.726 84.2507 304.106 83.7884C303.628 83.654 303.24 83.3097 303.046 82.8571C302.769 82.2112 296.22 66.9767 295.166 61.317C293.957 54.8179 294.925 35.0354 302.295 26.2113C304.623 23.4241 307.376 22.0076 310.474 22.0076C312.68 22.0076 315.031 22.7486 317.468 24.2111C324.544 28.4575 320.715 39.1736 317.34 48.6238C315.868 52.739 314.478 56.628 314.337 59.1397C314.09 63.4091 317.784 75.699 319.226 80.0732C319.48 80.8373 319.137 81.6734 318.42 82.0407C315.275 83.6605 312.117 84.4803 309.032 84.4803L309.029 84.4836Z" fill="#233D4C"/>
<path d="M310.479 23.6503C312.31 23.6503 314.354 24.2569 316.623 25.6177C325.421 30.9002 313.179 50.6469 312.695 59.0478C312.379 64.5632 317.664 80.5879 317.664 80.5879C314.799 82.0635 311.924 82.8439 309.033 82.8439C307.548 82.8439 306.056 82.6373 304.562 82.2111C304.562 82.2111 297.821 66.5634 296.787 61.0185C295.17 52.3192 297.871 23.6503 310.479 23.6503ZM310.479 20.3712C306.919 20.3712 303.653 22.0271 301.035 25.1652C296.814 30.2182 294.851 38.2455 293.949 44.0887C292.941 50.6141 292.783 57.4935 293.55 61.6186C294.617 67.3602 300.831 81.87 301.535 83.5063C301.927 84.4113 302.704 85.0966 303.656 85.3655C305.424 85.8672 307.232 86.123 309.03 86.123C312.382 86.123 315.793 85.2409 319.175 83.4997C320.611 82.7619 321.296 81.0929 320.792 79.5649C318.823 73.597 315.777 62.799 315.981 59.2347C316.113 56.959 317.525 53.0012 318.892 49.1746C320.551 44.5314 322.267 39.7309 322.866 35.3238C323.686 29.323 322.155 25.1094 318.319 22.8075C315.622 21.1877 312.985 20.3679 310.475 20.3679L310.479 20.3712Z" fill="black"/>
</svg>
