<svg width="160" height="125" viewBox="0 0 160 125" fill="none" xmlns="http://www.w3.org/2000/svg">
<path d="M66.3398 73.0889C66.2464 72.7672 66.136 72.4342 66.0483 72.1097C65.7851 71.1533 65.5474 70.1911 65.3408 69.2205C64.1013 63.4535 63.8466 57.4361 64.7975 51.6692C64.9163 50.9291 65.0663 50.1833 65.2389 49.4404C60.9204 49.4631 56.5934 49.3863 52.2608 49.2126C52.3598 49.8332 52.4702 50.448 52.5919 51.0629C54.0408 58.2417 56.9302 65.0903 61.0082 71.1134C61.8402 72.3431 62.7231 73.5414 63.6542 74.7C64.6984 75.9666 66.7303 74.9903 66.3992 73.3707L66.3398 73.0917V73.0889Z" fill="#233D4D"/>
<path d="M129.103 28.7778C125.163 29.7627 121.201 30.6565 117.214 31.4621C117.783 27.7047 118.054 23.9047 117.992 20.0961C117.992 20.0619 117.992 20.0278 117.992 19.9908C117.992 19.7061 117.984 19.4243 117.964 19.1482C117.381 8.51095 108.619 -2.1377 93.114 0.37004C79.8557 2.92048 71.1536 19.6293 68.1312 17.7563C68.1142 17.7449 68.1 17.7364 68.0831 17.725C68.0661 17.7136 68.0519 17.7022 68.035 17.6908C66.0483 16.4042 63.6796 15.4791 61.0195 14.9611C61.0506 14.907 61.0761 14.8472 61.0931 14.7817C61.178 14.4288 60.9629 14.0758 60.6148 13.9904C60.5214 13.9676 59.0838 13.6346 57.2811 14.0416C59.0414 13.071 60.7393 13.2646 60.8384 13.2788C61.2261 13.33 61.5826 13.0568 61.6336 12.664C61.6874 12.274 61.4129 11.9125 61.0252 11.8612C60.9091 11.8442 58.8319 11.588 56.6698 12.7493C57.4113 12.0007 58.1075 11.6563 58.1669 11.6278C58.5206 11.4599 58.6706 11.0358 58.5065 10.6771C58.3395 10.3185 57.9179 10.1648 57.5613 10.3327C57.4339 10.3896 54.8106 11.6648 53.8003 14.776C53.6418 14.8045 53.4833 14.8387 53.322 14.8728C44.5209 16.8255 38.6515 25.5015 40.307 33.0362C41.5324 38.6238 47.2659 41.1201 52.7532 41.55C55.6992 41.883 58.7187 41.698 61.594 40.9522C61.5968 40.9522 61.5996 40.9522 61.6053 40.9522C64.1438 40.3744 66.4077 39.5347 68.3066 38.4501C68.3264 38.4872 68.3462 38.5242 68.3661 38.564C66.1559 40.2121 63.2382 41.4361 59.8422 42.1876C57.5868 42.6885 55.3596 42.902 53.2711 42.8195C47.764 42.9134 41.3343 40.9522 39.1949 35.8086C36.7243 35.5923 34.2509 35.3418 31.7776 35.0543C31.1295 35.9168 30.6116 36.7963 30.2324 37.6873C29.0523 40.4427 29.1599 43.3575 30.6767 46.4317C44.4473 48.0114 58.2207 48.5751 71.8922 48.1595C71.9969 48.6234 72.0988 49.0846 72.1865 49.5485C72.8289 52.7537 73.1402 56.1353 73.1855 59.4286C73.2336 62.8587 73.01 66.3228 72.5289 69.7443C72.4638 70.2111 72.3931 70.6808 72.3167 71.1476C72.1129 72.3886 71.8724 73.6269 71.5894 74.848C70.9753 77.0796 73.859 78.4232 75.141 76.5046C75.8881 75.3262 76.5956 74.1278 77.2663 72.9067C79.3491 69.1152 81.0669 65.1301 82.4677 61.0141C83.3365 58.4466 84.0582 55.8222 84.6128 53.1579C85.2071 50.3142 85.609 47.4279 85.7986 44.5274C85.8778 43.0984 85.9146 41.6553 85.9005 40.215C85.8778 38.675 85.759 36.9529 85.6146 35.4101C85.4958 34.522 85.3345 33.0532 85.1562 32.1737L84.8619 30.5483L84.8138 30.2893C83.9421 26.3555 81.5508 24.0071 78.7576 23.0393C77.6313 22.6494 76.4427 22.4843 75.2598 22.527C77.2691 21.9947 79.4453 22.0858 81.3895 22.86C84.1374 23.9531 86.4212 26.4067 87.1173 30.3747L87.1541 30.6366L87.3749 32.2761C87.5135 33.1642 87.6069 34.6359 87.689 35.5297C87.7682 37.0753 87.8078 38.8003 87.7626 40.3402C87.7116 41.7805 87.6097 43.2208 87.4683 44.6441C87.3692 45.5265 87.2503 46.4089 87.1145 47.2856C91.317 46.9298 95.5053 46.4829 99.6795 45.9421C99.4107 42.9476 98.9494 39.9759 98.2815 37.0668C97.625 34.2402 96.7449 31.4194 95.6298 28.7465C95.6214 28.7266 95.6129 28.7038 95.6044 28.6839C95.0072 27.2037 94.3026 25.7919 93.5951 24.4199C91.1642 19.7061 92.2311 14.0957 95.8506 10.5946C96.6373 9.83171 97.5486 9.16849 98.5702 8.6362C102.303 6.62659 106.576 7.02225 109.927 8.98631C107.21 8.04413 104.151 8.06406 101.321 9.41044C100.277 9.89149 99.3343 10.5092 98.5107 11.2322C94.7214 14.5483 93.38 20.0989 95.5761 24.9266C96.2156 26.3327 96.8495 27.7787 97.3731 29.2845C97.3816 29.3073 97.3901 29.3301 97.3957 29.35C98.3777 32.0741 99.1163 34.9376 99.6342 37.7898C101.078 45.9278 100.964 54.4502 99.4022 62.6338C99.4022 62.6338 99.4022 62.6338 99.4022 62.6395C99.4022 62.6395 99.4022 62.648 99.4022 62.6509V62.6566V62.6622C99.4022 62.6708 99.4022 62.6765 99.3965 62.685V62.6907C99.3937 62.7106 99.388 62.7334 99.3824 62.7619C99.3824 62.7733 99.3795 62.7818 99.3767 62.7932C99.3767 62.8046 99.3739 62.8131 99.371 62.8245C99.371 62.8359 99.3682 62.8473 99.3654 62.8558C99.3484 62.9327 99.3343 63.0067 99.3201 63.0835C99.2692 63.3397 99.2182 63.5959 99.1645 63.8492C99.1079 64.1196 99.0513 64.3872 98.9918 64.6548C98.9635 64.7857 98.9352 64.9195 98.9013 65.0504C98.839 65.3208 98.7768 65.5884 98.7117 65.856C98.1683 67.8684 100.571 69.1921 101.91 67.5866C102.283 67.0999 102.651 66.6131 103.01 66.1179C103.073 66.0353 103.132 65.9528 103.191 65.8674C103.347 65.651 103.503 65.4347 103.656 65.2184C103.729 65.1159 103.803 65.0106 103.873 64.9081C104.018 64.7003 104.162 64.4925 104.304 64.2847C104.304 64.2819 104.309 64.279 104.309 64.2762C108.113 58.7142 111.096 52.6854 113.433 46.2552C113.742 45.3927 114.039 44.5274 114.319 43.6535C120.25 42.5661 126.142 41.2909 131.981 39.8278C132.889 36.6313 132.513 33.7563 130.965 31.186C130.464 30.3519 129.838 29.5492 129.094 28.775L129.103 28.7778ZM51.1882 28.7181C51.1458 28.553 51.2448 28.385 51.4061 28.3423C51.5703 28.2996 51.7372 28.3993 51.7797 28.5644C51.9268 29.1365 51.8419 29.7343 51.5448 30.2438C51.2448 30.7533 50.7666 31.1148 50.1977 31.2628C50.0223 31.3084 49.8468 31.3311 49.6742 31.334C48.6837 31.3454 47.7753 30.6793 47.5149 29.6716C47.4725 29.5065 47.5715 29.3386 47.7357 29.2959C47.8998 29.2532 48.0668 29.3528 48.1064 29.5179C48.3271 30.3719 49.1959 30.8871 50.0449 30.6679C50.4553 30.5597 50.8034 30.2979 51.0184 29.9307C51.2335 29.5606 51.2958 29.1308 51.1882 28.7181ZM73.2138 31.4507C73.1911 31.6243 73.1628 31.7979 73.126 31.9687C73.2364 31.2657 73.1713 30.5398 72.9421 29.8595C72.7185 29.1963 72.3846 28.5672 71.9969 28.0378C71.7111 27.6506 71.4167 27.2635 71.08 26.9162C69.4443 25.2311 67.8453 24.3032 66.7586 23.8107C65.7144 23.3382 64.5484 23.1731 63.4221 23.398C60.0092 24.0783 60.0432 27.5738 62.7316 29.0056C63.6938 29.5179 64.7409 29.5834 65.7399 29.9648C66.6539 30.3149 67.4718 30.9155 68.0604 31.7012C68.7085 32.5693 69.0368 33.6595 68.8783 34.744C68.6773 36.1189 67.752 37.2518 66.6907 38.0858C64.8767 39.509 63.0712 40.0328 60.8638 40.5822C50.1977 43.2294 46.3009 37.7528 48.8365 34.2174C49.2157 33.688 49.7251 33.2098 50.3647 32.8141C52.091 31.7467 53.1664 30.3491 53.5569 29.0881C54.2814 26.754 51.7712 24.9806 48.4517 26.5007C48.4432 26.5064 48.4319 26.5092 48.4205 26.5149C45.5057 27.7844 43.5926 31.1632 43.1596 34.2089C43.1087 34.5704 43.0493 35.1369 43.1285 35.8058C42.2116 32.8881 43.454 29.219 45.118 26.8963C46.3179 25.2197 48.047 23.6741 49.977 22.917C51.2788 22.4046 52.5834 22.8059 53.8569 23.1845C54.6493 23.4179 55.586 23.5716 56.2878 23.0337C56.8708 22.5839 57.1623 21.8638 57.6349 21.3115C58.4188 20.4007 59.5932 19.9993 60.7676 19.9709C62.4769 19.9282 64.2966 20.469 65.8729 21.1009C66.4926 21.3514 67.0982 21.6417 67.684 21.9719C68.5415 22.4558 69.3452 23.0337 70.0584 23.7111C70.1631 23.8107 70.265 23.9132 70.3668 24.0185C70.6187 24.2804 70.8621 24.5622 71.0913 24.8554C72.5374 26.7028 73.5053 29.1336 73.2138 31.4507ZM65.9946 25.2454C65.9436 25.0831 66.0342 24.9123 66.1955 24.8611C66.3568 24.8099 66.5266 24.8981 66.5804 25.0632C66.9426 26.2274 66.2974 27.4742 65.1399 27.8413C64.9673 27.8954 64.7918 27.9267 64.6192 27.9381C63.6315 28.0007 62.6892 27.3831 62.3779 26.3896C62.3269 26.2274 62.4175 26.0566 62.5788 26.0054C62.7401 25.9541 62.9099 26.0452 62.9608 26.2075C63.224 27.05 64.1183 27.5197 64.956 27.255C65.7936 26.9903 66.2606 26.0908 65.9974 25.2482L65.9946 25.2454Z" fill="#233D4D"/>
<path d="M57.4028 27.514C55.603 27.8043 54.2701 28.8262 54.4257 29.7997C54.5814 30.7732 56.1633 31.3254 57.9632 31.0379C59.763 30.7476 61.0959 29.7257 60.9403 28.7522C60.7846 27.7787 59.2027 27.2265 57.4028 27.514ZM57.0717 28.4704C56.5199 28.5586 56.1746 28.775 56.1718 28.7778C56.1378 28.7978 56.101 28.8091 56.0643 28.8091C55.9963 28.8091 55.9284 28.775 55.8888 28.7152C55.8294 28.6184 55.8548 28.4932 55.9511 28.4334C55.968 28.422 56.3642 28.1715 57.0066 28.0691C57.117 28.052 57.2217 28.1288 57.2415 28.2398C57.2585 28.3509 57.1821 28.4562 57.0717 28.4761V28.4704Z" fill="#233D4D"/>
<path d="M125.758 27.7503C126.304 27.9068 126.864 27.9637 127.413 27.9296C127.396 27.8328 127.402 27.7246 127.43 27.6051C127.543 27.235 127.583 26.7739 127.586 26.3099C127.586 24.8639 127.317 23.4208 127.023 21.9918C126.604 20.0591 126.075 18.1463 125.466 16.2619C126.674 18.9974 129.077 24.622 128.766 27.6535C129.086 27.5425 129.394 27.3973 129.688 27.2208C129.657 27.1212 129.626 27.0216 129.606 26.9191C129.238 25.2681 129.96 23.4094 131.412 22.5127C131.811 22.2566 132.241 22.063 132.691 21.9207C132.238 17.3606 125.93 13.0539 124.654 13.6318C117.684 21.8865 122.512 26.8166 125.758 27.7474V27.7503Z" fill="#233D4D"/>
<path d="M136.526 22.9027C136.494 22.7832 136.443 22.6579 136.37 22.5982C135.77 22.4928 134.762 22.3363 134.018 22.3704C132.835 22.3961 131.593 22.7263 130.747 23.6001C129.912 24.4598 129.558 25.7577 129.804 26.9305C129.946 27.5482 130.308 28.1032 130.801 28.4932C131.415 26.9134 132.541 25.6183 133.826 24.5622C134.264 24.2064 134.717 23.8734 135.195 23.583C134.785 23.9616 134.412 24.3744 134.063 24.8013C133.067 26.031 132.227 27.4827 132.012 29.0568C132.012 29.0653 132.009 29.0767 132.006 29.0853C132.493 29.2304 133.008 29.2817 133.503 29.182C135.603 28.7209 136.458 25.9912 136.596 24.084C136.619 23.6912 136.627 23.287 136.531 22.9056L136.526 22.9027Z" fill="#233D4D"/>
<path d="M37.2026 48.2961C38.4619 50.8664 39.0817 53.6845 39.4807 56.4996C39.2798 55.7965 39.0477 55.1077 38.8015 54.4245C38.094 52.4975 37.2479 50.5733 36.0621 48.9052C31.8823 54.8971 39.1043 58.7312 40.0354 57.9371C40.9268 57.1742 41.3372 54.6323 41.1815 52.8334C40.8419 48.9024 38.4336 48.3302 37.2026 48.2989V48.2961Z" fill="#233D4D"/>
<path d="M29.8164 52.2811C28.6165 54.416 27.6572 56.6818 26.7657 58.9675C26.3214 60.1175 25.8969 61.276 25.5064 62.4487C26.395 58.8366 27.4194 55.2358 28.925 51.8257C29.3976 50.7981 29.8872 49.8076 30.5805 48.8995C30.5748 48.8995 30.572 48.8995 30.5664 48.8995C28.4354 48.8198 22.8236 49.2924 22.0935 56.3345C21.7878 59.2892 22.5972 63.4564 24.3603 64.7088C26.2252 66.0324 40.9013 59.5368 31.8427 49.4631C31.0361 50.2516 30.3909 51.2906 29.8192 52.2868L29.8164 52.2811Z" fill="#233D4D"/>
<path d="M92.8791 61.2817C92.432 56.8583 92.4037 52.3808 92.7999 47.9517C90.8444 48.1538 88.8832 48.3331 86.9193 48.4925C86.6419 50.078 86.3023 51.6521 85.9033 53.212C85.5807 54.4786 85.2185 55.7368 84.8194 56.9807C85.8014 59.1355 86.8796 61.2447 88.0654 63.3027C88.6908 64.3872 89.3445 65.4575 90.0322 66.5135C91.2378 68.2243 93.7394 67.0999 93.3602 65.0476C93.165 63.798 93.0037 62.5399 92.8763 61.2789L92.8791 61.2817Z" fill="#233D4D"/>
<path d="M13.0433 92.536C15.8138 92.536 17.8683 93.1451 19.2097 94.3606C20.5511 95.576 21.2218 97.1615 21.2218 99.1199C21.2218 100.779 20.7634 102.049 19.8521 102.923C18.9381 103.797 17.625 104.235 15.9185 104.235C15.3893 104.235 15.0497 104.184 14.9025 104.078C14.7554 103.976 14.6818 103.76 14.6818 103.435C14.6818 103.139 14.6592 102.755 14.6167 102.279C14.5714 101.804 14.4611 101.346 14.2856 100.902C14.1102 100.458 13.8272 100.079 13.4451 99.7689C13.0631 99.4586 12.531 99.302 11.8547 99.302C10.9123 99.302 10.0718 99.5895 9.33319 100.17C8.5974 100.748 8.22668 101.497 8.22668 102.416C8.22668 103.216 8.52949 103.868 9.13227 104.372C9.73505 104.875 10.4963 105.342 11.4104 105.772C12.3245 106.202 13.3178 106.64 14.396 107.084C15.4714 107.528 16.4675 108.115 17.3816 108.841C18.2957 109.566 19.0541 110.472 19.6597 111.553C20.2625 112.635 20.5653 114.007 20.5653 115.666C20.5653 116.97 20.3502 118.194 19.9229 119.336C19.4956 120.477 18.8617 121.47 18.0212 122.316C17.1807 123.161 16.1194 123.822 14.8375 124.294C13.5555 124.767 12.0584 125.006 10.3491 125.006C8.87474 125.006 7.5107 124.843 6.25986 124.516C5.00619 124.192 3.91666 123.782 2.98843 123.292C2.06021 122.803 1.33008 122.27 0.800878 121.692C0.268847 121.115 0.00566101 120.588 0.00566101 120.113C0.00566101 118.157 0.116029 116.748 0.336766 115.888C0.557502 115.029 0.962186 114.599 1.55365 114.599C1.96682 114.599 2.3998 114.775 2.85826 115.131C3.31388 115.487 3.83742 115.888 4.42888 116.332C5.01751 116.777 5.70236 117.178 6.48343 117.534C7.2645 117.89 8.17008 118.069 9.20302 118.069C9.61619 118.069 10.0209 118.032 10.4199 117.958C10.8189 117.884 11.1727 117.759 11.4811 117.579C11.7896 117.4 12.0415 117.164 12.2339 116.868C12.4263 116.572 12.5226 116.216 12.5226 115.8C12.5226 115.06 12.2424 114.465 11.6821 114.021C11.1217 113.577 10.4142 113.17 9.55959 112.797C8.70494 112.427 7.78238 112.04 6.79755 111.642C5.8099 111.24 4.89016 110.694 4.03552 109.996C3.18087 109.299 2.47338 108.402 1.91305 107.306C1.35272 106.21 1.07255 104.801 1.07255 103.082C1.07255 101.155 1.43196 99.5241 2.15643 98.1891C2.87807 96.8541 3.80629 95.7667 4.9411 94.9213C6.07591 94.0759 7.35788 93.4696 8.78701 93.0967C10.2161 92.7267 11.6396 92.5417 13.0546 92.5417L13.0433 92.536Z" fill="#233D4D"/>
<path d="M45.3614 120.952C45.3614 121.1 45.2878 121.396 45.1406 121.84C44.9935 122.284 44.7586 122.746 44.4331 123.218C44.1077 123.693 43.703 124.106 43.2163 124.462C42.7295 124.818 42.1465 124.997 41.4702 124.997C40.6749 124.997 39.8854 124.73 39.1043 124.197C38.3233 123.662 37.5478 122.936 36.7838 122.017C36.0168 121.097 35.2443 120.01 34.4632 118.749C33.6821 117.488 32.8926 116.119 32.0974 114.636C31.9785 116.207 31.8625 117.75 31.7436 119.262C31.6248 120.773 31.5087 122.242 31.3899 123.665C31.3616 124.021 31.2852 124.257 31.1691 124.377C31.0503 124.496 30.8012 124.553 30.4164 124.553H28.8259C27.9119 124.553 27.1591 124.456 26.5705 124.263C25.9818 124.069 25.5234 123.796 25.2008 123.44C24.8753 123.084 24.6489 122.632 24.5159 122.082C24.3829 121.533 24.3178 120.904 24.3178 120.192C24.3178 119.836 24.332 119.466 24.3631 119.079C24.3914 118.695 24.4367 118.146 24.4961 117.434C24.5555 116.722 24.6348 115.789 24.7395 114.633C24.8414 113.477 24.9687 111.949 25.1159 110.053C25.263 108.157 25.4328 105.82 25.6253 103.048C25.8177 100.276 26.0299 96.9053 26.2676 92.9316C26.2959 92.2798 26.3695 91.8927 26.4884 91.776C26.5761 91.6877 26.8138 91.6422 27.1959 91.6422H28.9193C29.8334 91.6422 30.5833 91.7475 31.1748 91.9524C31.7634 92.1602 32.236 92.442 32.5898 92.7978C32.9435 93.1537 33.1869 93.5692 33.3199 94.0418C33.4529 94.5171 33.518 95.0067 33.518 95.5105C33.518 95.8066 33.4954 96.3047 33.4529 96.9992C33.4076 97.6966 33.3567 98.542 33.2973 99.5326C33.2378 100.526 33.1558 101.645 33.0539 102.891C32.9492 104.135 32.8558 105.442 32.7652 106.805L39.8401 100.313C40.1061 100.076 40.3495 99.9112 40.5702 99.8229C40.791 99.7347 40.9608 99.6892 41.0796 99.6892C41.4051 99.6892 41.756 99.897 42.1409 100.313C42.5229 100.728 42.8851 101.209 43.2247 101.759C43.5643 102.308 43.8445 102.872 44.0652 103.449C44.286 104.027 44.3963 104.494 44.3963 104.85C44.3963 105.709 43.7115 106.615 42.3418 107.563C40.9721 108.51 38.9006 109.578 36.13 110.765C37.3667 112.16 38.5468 113.432 39.6675 114.59C40.7881 115.746 41.7673 116.771 42.6078 117.659C43.4483 118.547 44.119 119.276 44.6199 119.839C45.1208 120.403 45.3727 120.773 45.3727 120.952H45.3614Z" fill="#233D4D"/>
<path d="M52.7447 124.556C51.8306 124.556 51.0863 124.459 50.5119 124.266C49.9374 124.072 49.4789 123.799 49.1422 123.443C48.8026 123.087 48.5677 122.649 48.4347 122.131C48.3017 121.613 48.2366 121.012 48.2366 120.329C48.2366 119.885 48.2592 119.256 48.3017 118.439C48.3469 117.625 48.4262 116.498 48.545 115.06C48.6639 113.623 48.8026 111.798 48.9639 109.589C49.1252 107.38 49.3233 104.645 49.561 101.386C49.5893 100.734 49.6629 100.35 49.7817 100.23C49.8695 100.142 50.1072 100.096 50.4892 100.096H52.2127C53.1267 100.096 53.871 100.184 54.4455 100.364C55.02 100.54 55.4756 100.808 55.8152 101.164C56.1548 101.519 56.3897 101.949 56.5227 102.453C56.6557 102.957 56.7208 103.521 56.7208 104.144C56.7208 104.588 56.6925 105.257 56.633 106.145C56.5736 107.033 56.4916 108.243 56.3897 109.769C56.285 111.297 56.1463 113.193 55.9708 115.461C55.7954 117.73 55.5718 120.466 55.3086 123.665C55.2803 124.021 55.2039 124.257 55.0879 124.377C54.969 124.496 54.72 124.553 54.3351 124.553H52.7447V124.556ZM49.6063 94.8502C49.6063 93.6632 50.0336 92.7295 50.8882 92.0492C51.7429 91.3689 52.8918 91.0273 54.338 91.0273C55.6058 91.0273 56.5255 91.2864 57.1 91.8044C57.6745 92.3225 57.9631 93.0142 57.9631 93.871C57.9631 94.9669 57.5584 95.8806 56.7463 96.6064C55.9341 97.3323 54.7483 97.6966 53.1862 97.6966C50.7977 97.6966 49.6063 96.7488 49.6063 94.8502Z" fill="#233D4D"/>
<path d="M65.7427 124.954C63.9145 124.954 62.6043 124.465 61.809 123.486C61.0138 122.506 60.6148 120.893 60.6148 118.638C60.6148 118.282 60.6374 117.838 60.6799 117.303C60.7252 116.771 60.7818 116.079 60.8554 115.237C60.9289 114.391 61.0251 113.347 61.144 112.103C61.2629 110.856 61.3874 109.344 61.5204 107.565C61.6534 105.786 61.8006 103.697 61.9619 101.295C62.1232 98.8921 62.293 96.1054 62.4713 92.9345C62.4996 92.2826 62.5731 91.8955 62.692 91.7788C62.7797 91.6906 63.0174 91.645 63.3995 91.645H65.1229C66.0059 91.645 66.7445 91.7503 67.3331 91.9553C67.9217 92.1631 68.3944 92.4449 68.7481 92.8007C69.1018 93.1565 69.3509 93.5635 69.5009 94.0247C69.648 94.4858 69.7216 94.9669 69.7216 95.4707C69.7216 96.0627 69.6848 96.9167 69.6112 98.0268C69.5377 99.1398 69.4414 100.392 69.3226 101.784C69.2037 103.179 69.0877 104.631 68.9688 106.142C68.85 107.654 68.734 109.1 68.6151 110.477C68.4962 111.855 68.4 113.093 68.3264 114.192C68.2529 115.288 68.2161 116.119 68.2161 116.683C68.2161 117.454 68.3547 118.003 68.6349 118.328C68.9151 118.655 69.2179 118.883 69.5405 119.017C69.8659 119.15 70.1659 119.239 70.4461 119.284C70.7262 119.33 70.8649 119.427 70.8649 119.575C70.8649 120.226 70.7913 120.873 70.6442 121.51C70.497 122.148 70.231 122.726 69.849 123.244C69.4669 123.762 68.9434 124.177 68.2783 124.488C67.6161 124.798 66.7671 124.954 65.737 124.954H65.7427Z" fill="#233D4D"/>
<path d="M79.0944 124.954C77.2663 124.954 75.956 124.465 75.1608 123.486C74.3656 122.506 73.9666 120.893 73.9666 118.638C73.9666 118.282 73.9892 117.838 74.0316 117.303C74.0769 116.771 74.1335 116.079 74.2071 115.237C74.2807 114.391 74.3769 113.347 74.4958 112.103C74.6146 110.856 74.7391 109.344 74.8721 107.565C75.0051 105.786 75.1523 103.697 75.3136 101.295C75.4749 98.8921 75.6447 96.1054 75.823 92.9345C75.8513 92.2826 75.9249 91.8955 76.0437 91.7788C76.1315 91.6906 76.3692 91.645 76.7512 91.645H78.4747C79.3576 91.645 80.0962 91.7503 80.6849 91.9553C81.2735 92.1631 81.7461 92.4449 82.0998 92.8007C82.4536 93.1565 82.7026 93.5635 82.8526 94.0247C82.9998 94.4858 83.0733 94.9669 83.0733 95.4707C83.0733 96.0627 83.0366 96.9167 82.963 98.0268C82.8894 99.1398 82.7932 100.392 82.6743 101.784C82.5555 103.179 82.4394 104.631 82.3206 106.142C82.2017 107.654 82.0857 109.1 81.9668 110.477C81.848 111.855 81.7518 113.093 81.681 114.192C81.6074 115.288 81.5706 116.119 81.5706 116.683C81.5706 117.454 81.7093 118.003 81.9895 118.328C82.2696 118.655 82.5725 118.883 82.8951 119.017C83.2177 119.15 83.5205 119.239 83.8006 119.284C84.0808 119.33 84.2195 119.427 84.2195 119.575C84.2195 120.226 84.1459 120.873 83.9987 121.51C83.8516 122.148 83.5856 122.726 83.2035 123.244C82.8215 123.762 82.2979 124.177 81.6329 124.488C80.9707 124.798 80.1217 124.954 79.0916 124.954H79.0944Z" fill="#233D4D"/>
<path d="M95.4063 125C94.2573 125 93.1593 124.792 92.1122 124.377C91.0651 123.961 90.151 123.309 89.37 122.421C88.5889 121.533 87.9691 120.406 87.5135 119.042C87.0551 117.679 86.8287 116.034 86.8287 114.107C86.8287 113.247 86.8881 112.29 87.0041 111.237C87.123 110.184 87.3296 109.125 87.6239 108.058C87.9182 106.99 88.3314 105.954 88.8606 104.944C89.3926 103.936 90.0605 103.039 90.8727 102.254C91.682 101.468 92.6556 100.839 93.7904 100.364C94.9252 99.8884 96.2581 99.6521 97.7919 99.6521C99.3258 99.6521 100.452 99.9112 101.352 100.429C102.252 100.947 102.818 101.844 103.053 103.119C103.112 101.963 103.172 100.956 103.228 100.096C103.288 99.2366 103.339 98.4367 103.384 97.6938C103.429 96.9537 103.48 96.2108 103.54 95.4707C103.599 94.7306 103.658 93.8852 103.715 92.9373C103.743 92.2855 103.817 91.8983 103.936 91.7816C103.995 91.7219 104.069 91.6849 104.156 91.6706C104.244 91.6564 104.406 91.6479 104.643 91.6479H106.367C107.25 91.6479 107.988 91.7532 108.577 91.9581C109.166 92.1659 109.638 92.4477 109.992 92.8035C110.346 93.1593 110.595 93.5664 110.745 94.0275C110.892 94.4886 110.965 94.9697 110.965 95.4735C110.846 96.9565 110.745 98.3115 110.657 99.5411C110.569 100.771 110.464 102.174 110.348 103.743C110.23 105.314 110.114 106.936 109.995 108.613C109.876 110.289 109.76 111.949 109.641 113.594C109.522 115.239 109.406 116.751 109.287 118.131C109.168 119.509 109.072 120.696 108.999 121.69C108.925 122.683 108.874 123.343 108.843 123.668C108.783 124.024 108.71 124.26 108.622 124.379C108.534 124.499 108.283 124.556 107.869 124.556H106.279C105.659 124.556 105.076 124.505 104.533 124.399C103.987 124.297 103.517 124.118 103.118 123.864C102.719 123.614 102.41 123.272 102.19 122.842C101.969 122.413 101.859 121.857 101.859 121.174C101.329 122.302 100.526 123.221 99.4503 123.933C98.3749 124.644 97.025 125 95.4034 125H95.4063ZM99.2522 105.567C97.7495 105.567 96.6345 106.227 95.9128 107.545C95.1912 108.866 94.829 110.637 94.829 112.86C94.829 113.631 94.8799 114.388 94.9846 115.128C95.0865 115.868 95.2704 116.537 95.5364 117.129C95.8025 117.722 96.1619 118.197 96.6203 118.553C97.0759 118.909 97.6589 119.088 98.3664 119.088C99.6342 119.088 100.695 118.464 101.55 117.221C102.405 115.977 102.832 114.018 102.832 111.351C102.832 110.611 102.787 109.891 102.699 109.194C102.611 108.496 102.433 107.881 102.167 107.349C101.901 106.817 101.533 106.387 101.061 106.06C100.588 105.735 99.9851 105.57 99.2465 105.57L99.2522 105.567Z" fill="#233D4D"/>
<path d="M124.102 125C122.067 125 120.381 124.71 119.039 124.132C117.698 123.554 116.631 122.76 115.833 121.752C115.038 120.745 114.477 119.566 114.152 118.217C113.826 116.868 113.665 115.422 113.665 113.882C113.665 112.103 113.877 110.361 114.308 108.656C114.735 106.95 115.465 105.43 116.495 104.098C117.525 102.763 118.889 101.69 120.584 100.873C122.28 100.059 124.394 99.6493 126.929 99.6493C130.642 99.6493 133.302 100.56 134.91 102.385C136.514 104.209 137.318 106.765 137.318 110.056C137.318 110.975 137.253 111.992 137.12 113.102C136.987 114.215 136.735 115.319 136.367 116.415C135.999 117.511 135.498 118.578 134.864 119.617C134.23 120.656 133.427 121.573 132.456 122.376C131.483 123.175 130.311 123.813 128.941 124.288C127.572 124.764 125.958 125 124.099 125H124.102ZM126.179 105.567C125.059 105.567 124.167 105.857 123.505 106.435C122.843 107.013 122.339 107.711 122.002 108.525C121.663 109.342 121.442 110.201 121.34 111.104C121.235 112.009 121.184 112.772 121.184 113.395C121.184 115.35 121.493 116.791 122.113 117.707C122.732 118.627 123.615 119.085 124.764 119.085C125.794 119.085 126.643 118.758 127.306 118.106C127.968 117.454 128.486 116.668 128.854 115.749C129.221 114.83 129.473 113.867 129.606 112.857C129.739 111.849 129.804 111.004 129.804 110.324C129.804 108.841 129.533 107.676 128.987 106.834C128.44 105.988 127.506 105.567 126.179 105.567Z" fill="#233D4D"/>
<path d="M154.917 110.725C154.742 110.725 154.541 110.719 154.32 110.702C154.1 110.688 153.884 110.657 153.678 110.614C153.471 110.568 153.296 110.511 153.146 110.437C152.999 110.363 152.925 110.267 152.925 110.15C152.925 109.766 152.939 109.41 152.97 109.083C152.999 108.758 153.016 108.416 153.016 108.061C153.016 107.409 152.928 106.874 152.75 106.461C152.574 106.045 152.218 105.838 151.688 105.838C150.862 105.838 150.177 106.378 149.634 107.46C149.088 108.542 148.742 110.167 148.595 112.33C148.536 113.278 148.454 114.354 148.352 115.555C148.247 116.757 148.154 117.912 148.063 119.025C147.976 120.138 147.902 121.123 147.842 121.983C147.783 122.842 147.755 123.406 147.755 123.674C147.755 123.97 147.65 124.192 147.446 124.34C147.24 124.488 147.019 124.562 146.784 124.562H145.194C144.28 124.562 143.535 124.465 142.961 124.271C142.386 124.078 141.928 123.804 141.591 123.449C141.252 123.093 141.017 122.654 140.884 122.136C140.751 121.618 140.686 121.018 140.686 120.335C140.686 119.891 140.708 119.261 140.751 118.445C140.796 117.63 140.875 116.503 140.994 115.066C141.113 113.628 141.252 111.804 141.413 109.595C141.574 107.386 141.772 104.651 142.01 101.391C142.069 100.532 142.378 100.102 142.938 100.102H144.662C145.488 100.102 146.178 100.19 146.739 100.369C147.299 100.546 147.755 100.791 148.109 101.104C148.462 101.417 148.72 101.778 148.881 102.194C149.042 102.61 149.153 103.039 149.212 103.483C149.566 102.803 149.985 102.217 150.472 101.727C150.958 101.238 151.465 100.839 151.997 100.526C152.529 100.213 153.072 99.9909 153.633 99.8599C154.193 99.7261 154.708 99.6607 155.181 99.6607C155.741 99.6607 156.307 99.766 156.884 99.9709C157.459 100.179 157.982 100.489 158.455 100.905C158.927 101.32 159.301 101.852 159.581 102.504C159.861 103.156 160 103.928 160 104.816C160 105.616 159.881 106.373 159.646 107.084C159.411 107.796 159.072 108.425 158.63 108.974C158.189 109.524 157.651 109.954 157.017 110.264C156.383 110.574 155.684 110.731 154.917 110.731V110.725Z" fill="#233D4D"/>
</svg>
