<svg width="79" height="62" viewBox="0 0 79 62" fill="none" xmlns="http://www.w3.org/2000/svg">
<g clip-path="url(#clip0_1633_13568)">
<path d="M6.44 45.8979C7.80795 45.8979 8.82238 46.2001 9.4847 46.8029C10.147 47.4058 10.4782 48.1922 10.4782 49.1636C10.4782 49.9867 10.2518 50.6164 9.80188 51.0498C9.35056 51.4832 8.70222 51.7007 7.85965 51.7007C7.59836 51.7007 7.43068 51.6752 7.35802 51.623C7.28536 51.5722 7.24903 51.4649 7.24903 51.3039C7.24903 51.1571 7.23786 50.9665 7.2169 50.7307C7.19454 50.4949 7.14005 50.2676 7.05341 50.0474C6.96678 49.8271 6.82705 49.6394 6.63842 49.4855C6.44978 49.3316 6.18709 49.2539 5.85314 49.2539C5.38784 49.2539 4.97285 49.3965 4.60815 49.6845C4.24486 49.9711 4.06181 50.3425 4.06181 50.7985C4.06181 51.1952 4.21132 51.5185 4.50895 51.7684C4.80657 52.0183 5.18244 52.2499 5.63377 52.4631C6.08509 52.6762 6.57554 52.8937 7.10791 53.1139C7.63888 53.3342 8.13072 53.625 8.58205 53.985C9.03337 54.345 9.40785 54.794 9.70687 55.3305C10.0045 55.867 10.154 56.5475 10.154 57.3706C10.154 58.0173 10.0478 58.6244 9.83682 59.1905C9.62583 59.7567 9.31283 60.2494 8.89784 60.6687C8.48284 61.088 7.95886 61.4156 7.32589 61.65C6.69291 61.8843 5.95375 62.0029 5.10978 62.0029C4.38179 62.0029 3.7083 61.9225 3.0907 61.7601C2.4717 61.5991 1.93374 61.3958 1.47543 61.153C1.01712 60.9102 0.656618 60.6461 0.395324 60.3595C0.132634 60.0729 0.00268555 59.8117 0.00268555 59.576C0.00268555 58.606 0.0571799 57.9071 0.166169 57.4808C0.275157 57.0544 0.47497 56.8412 0.767003 56.8412C0.971008 56.8412 1.18479 56.9287 1.41115 57.1052C1.63612 57.2817 1.89462 57.4808 2.18665 57.701C2.47729 57.9213 2.81543 58.1203 3.20108 58.2968C3.58674 58.4733 4.03387 58.5622 4.54388 58.5622C4.74788 58.5622 4.9477 58.5439 5.14471 58.5072C5.34173 58.4705 5.51639 58.4084 5.6687 58.3194C5.821 58.2305 5.94536 58.1133 6.04038 57.9664C6.13539 57.8196 6.1829 57.6431 6.1829 57.437C6.1829 57.0699 6.04457 56.7748 5.76791 56.5546C5.49124 56.3343 5.14192 56.1325 4.71994 55.9475C4.29796 55.764 3.84244 55.5719 3.35618 55.3743C2.86853 55.1752 2.41441 54.9041 1.99243 54.5582C1.57045 54.2123 1.22112 53.7676 0.944459 53.224C0.667796 52.6805 0.529464 51.9816 0.529464 51.1289C0.529464 50.173 0.70692 49.364 1.06463 48.7019C1.42094 48.0397 1.87925 47.5004 2.43956 47.0811C2.99987 46.6618 3.63285 46.361 4.33848 46.1761C5.04411 45.9925 5.74695 45.9008 6.44559 45.9008L6.44 45.8979Z" fill="white"/>
<path d="M22.3971 59.9924C22.3971 60.0658 22.3608 60.2127 22.2881 60.4329C22.2154 60.6532 22.0995 60.8819 21.9388 61.1162C21.7781 61.352 21.5783 61.5567 21.3379 61.7332C21.0976 61.9097 20.8098 61.9987 20.4758 61.9987C20.0832 61.9987 19.6933 61.8659 19.3077 61.6019C18.922 61.3365 18.5392 60.9765 18.1619 60.5204C17.7832 60.0644 17.4018 59.5251 17.0161 58.8996C16.6305 58.2742 16.2406 57.5951 15.848 56.8595C15.7893 57.6389 15.732 58.4041 15.6733 59.1538C15.6146 59.9035 15.5573 60.632 15.4987 61.3379C15.4847 61.5144 15.447 61.6316 15.3897 61.6909C15.331 61.7502 15.208 61.7784 15.018 61.7784H14.2327C13.7814 61.7784 13.4097 61.7304 13.1191 61.6344C12.8284 61.5384 12.6021 61.4029 12.4428 61.2264C12.2821 61.0499 12.1703 60.8254 12.1046 60.5529C12.039 60.2804 12.0068 59.9684 12.0068 59.6154C12.0068 59.439 12.0138 59.2554 12.0292 59.0634C12.0432 58.8728 12.0655 58.6003 12.0949 58.2474C12.1242 57.8944 12.1633 57.4313 12.215 56.8581C12.2653 56.2849 12.3282 55.5267 12.4009 54.5864C12.4735 53.6461 12.5574 52.487 12.6524 51.1119C12.7474 49.7367 12.8522 48.0651 12.9696 46.0942C12.9835 45.7708 13.0199 45.5788 13.0786 45.5209C13.1219 45.4772 13.2392 45.4546 13.4279 45.4546H14.2788C14.7302 45.4546 15.1004 45.5068 15.3925 45.6085C15.6831 45.7115 15.9165 45.8513 16.0911 46.0278C16.2658 46.2043 16.3859 46.4104 16.4516 46.6448C16.5173 46.8806 16.5494 47.1234 16.5494 47.3733C16.5494 47.5201 16.5382 47.7672 16.5173 48.1117C16.4949 48.4576 16.4698 48.8769 16.4404 49.3682C16.4111 49.861 16.3706 50.4158 16.3203 51.0342C16.2686 51.6512 16.2225 52.2992 16.1777 52.9755L19.671 49.7551C19.8023 49.6379 19.9225 49.556 20.0315 49.5122C20.1405 49.4685 20.2243 49.4459 20.283 49.4459C20.4437 49.4459 20.6169 49.549 20.807 49.7551C20.9956 49.9612 21.1745 50.1998 21.3421 50.4723C21.5098 50.7448 21.6481 51.0243 21.7571 51.3109C21.8661 51.5975 21.9206 51.8291 21.9206 52.0056C21.9206 52.432 21.5825 52.8809 20.9062 53.3511C20.2299 53.8212 19.2071 54.3507 17.8391 54.9394C18.4497 55.6312 19.0324 56.2623 19.5857 56.8369C20.1391 57.4101 20.6225 57.9184 21.0375 58.3589C21.4525 58.7994 21.7837 59.1608 22.031 59.4404C22.2783 59.7199 22.4027 59.9035 22.4027 59.9924H22.3971Z" fill="white"/>
<path d="M26.0425 61.7798C25.5912 61.7798 25.2237 61.7318 24.9401 61.6358C24.6564 61.5398 24.4301 61.4043 24.2638 61.2278C24.0961 61.0513 23.9801 60.8339 23.9145 60.5769C23.8488 60.32 23.8167 60.0221 23.8167 59.6832C23.8167 59.463 23.8278 59.151 23.8488 58.7458C23.8711 58.342 23.9103 57.7829 23.969 57.0699C24.0276 56.3569 24.0961 55.4519 24.1758 54.3563C24.2554 53.2607 24.3532 51.9039 24.4706 50.2874C24.4846 49.9641 24.5209 49.7735 24.5796 49.7142C24.6229 49.6704 24.7403 49.6478 24.9289 49.6478H25.7798C26.2312 49.6478 26.5987 49.6916 26.8823 49.7805C27.166 49.8681 27.3909 50.0008 27.5586 50.1773C27.7263 50.3537 27.8422 50.5669 27.9079 50.8168C27.9736 51.0667 28.0057 51.3463 28.0057 51.6555C28.0057 51.8757 27.9918 52.2075 27.9624 52.648C27.9331 53.0885 27.8925 53.6885 27.8422 54.4453C27.7905 55.2034 27.7221 56.1437 27.6354 57.269C27.5488 58.3942 27.4384 59.751 27.3085 61.3379C27.2945 61.5144 27.2568 61.6316 27.1995 61.6909C27.1408 61.7502 27.0178 61.7784 26.8278 61.7784H26.0425V61.7798ZM24.4929 47.0458C24.4929 46.457 24.7039 45.9939 25.1259 45.6565C25.5479 45.3191 26.1152 45.1497 26.8292 45.1497C27.4552 45.1497 27.9093 45.2781 28.193 45.5351C28.4766 45.792 28.6191 46.1351 28.6191 46.5601C28.6191 47.1037 28.4193 47.5569 28.0183 47.9169C27.6173 48.2769 27.0318 48.4576 26.2605 48.4576C25.0812 48.4576 24.4929 47.9875 24.4929 47.0458Z" fill="white"/>
<path d="M32.4604 61.9775C31.5577 61.9775 30.9108 61.7347 30.5181 61.249C30.1255 60.7633 29.9285 59.9628 29.9285 58.8446C29.9285 58.6682 29.9396 58.4479 29.9606 58.1825C29.983 57.9185 30.0109 57.5754 30.0472 57.1575C30.0836 56.7382 30.1311 56.22 30.1898 55.603C30.2484 54.9846 30.3099 54.2349 30.3756 53.3525C30.4413 52.4701 30.5139 51.4338 30.5936 50.2422C30.6732 49.0506 30.7571 47.6684 30.8451 46.0956C30.8591 45.7723 30.8954 45.5803 30.9541 45.5224C30.9974 45.4786 31.1148 45.4561 31.3034 45.4561H32.1544C32.5903 45.4561 32.955 45.5083 33.2456 45.6099C33.5363 45.713 33.7696 45.8528 33.9443 46.0293C34.1189 46.2057 34.2419 46.4076 34.316 46.6364C34.3886 46.8651 34.4249 47.1037 34.4249 47.3536C34.4249 47.6472 34.4068 48.0708 34.3705 48.6214C34.3341 49.1735 34.2866 49.7947 34.2279 50.4851C34.1692 51.1769 34.112 51.8969 34.0533 52.6466C33.9946 53.3963 33.9373 54.1135 33.8786 54.7969C33.8199 55.4802 33.7724 56.0944 33.7361 56.6393C33.6998 57.1829 33.6816 57.5951 33.6816 57.8747C33.6816 58.2573 33.7501 58.5298 33.8884 58.6907C34.0267 58.8531 34.1762 58.9661 34.3355 59.0324C34.4962 59.0988 34.6443 59.1425 34.7827 59.1651C34.921 59.1877 34.9895 59.2357 34.9895 59.3091C34.9895 59.6324 34.9531 59.9529 34.8805 60.2692C34.8078 60.5854 34.6765 60.8721 34.4878 61.129C34.2992 61.386 34.0407 61.5921 33.7123 61.746C33.3854 61.8999 32.9662 61.9775 32.4576 61.9775H32.4604Z" fill="white"/>
<path d="M39.0526 61.9775C38.15 61.9775 37.503 61.7347 37.1104 61.249C36.7178 60.7633 36.5208 59.9628 36.5208 58.8446C36.5208 58.6682 36.5319 58.4479 36.5529 58.1825C36.5752 57.9185 36.6032 57.5754 36.6395 57.1575C36.6759 56.7382 36.7234 56.22 36.782 55.603C36.8407 54.9846 36.9022 54.2349 36.9679 53.3525C37.0336 52.4701 37.1062 51.4338 37.1859 50.2422C37.2655 49.0506 37.3493 47.6684 37.4374 46.0956C37.4513 45.7723 37.4877 45.5803 37.5464 45.5224C37.5897 45.4786 37.7071 45.4561 37.8957 45.4561H38.7466C39.1826 45.4561 39.5473 45.5083 39.8379 45.6099C40.1286 45.713 40.3619 45.8528 40.5366 46.0293C40.7112 46.2057 40.8342 46.4076 40.9082 46.6364C40.9809 46.8651 41.0172 47.1037 41.0172 47.3536C41.0172 47.6472 40.9991 48.0708 40.9627 48.6214C40.9264 49.1735 40.8789 49.7947 40.8202 50.4851C40.7615 51.1769 40.7042 51.8969 40.6456 52.6466C40.5869 53.3963 40.5296 54.1135 40.4709 54.7969C40.4122 55.4802 40.3647 56.0944 40.3298 56.6393C40.2934 57.1829 40.2753 57.5951 40.2753 57.8747C40.2753 58.2573 40.3437 58.5298 40.4821 58.6907C40.6204 58.8531 40.7699 58.9661 40.9292 59.0324C41.0885 59.0988 41.238 59.1425 41.3763 59.1651C41.5147 59.1877 41.5831 59.2357 41.5831 59.3091C41.5831 59.6324 41.5468 59.9529 41.4741 60.2692C41.4015 60.5854 41.2701 60.8721 41.0815 61.129C40.8929 61.386 40.6344 61.5921 40.306 61.746C39.979 61.8999 39.5599 61.9775 39.0512 61.9775H39.0526Z" fill="white"/>
<path d="M47.1068 62.0002C46.5395 62.0002 45.9973 61.8971 45.4803 61.691C44.9633 61.4848 44.512 61.1615 44.1263 60.721C43.7407 60.2805 43.4347 59.7214 43.2097 59.0452C42.9834 58.3689 42.8716 57.5528 42.8716 56.597C42.8716 56.1706 42.9009 55.6963 42.9582 55.1739C43.0169 54.6515 43.1189 54.1263 43.2642 53.5968C43.4095 53.0674 43.6135 52.5535 43.8748 52.0523C44.1375 51.5525 44.4673 51.1077 44.8683 50.7181C45.2679 50.3284 45.7486 50.0164 46.3089 49.7806C46.8692 49.5448 47.5274 49.4276 48.2847 49.4276C49.042 49.4276 49.5981 49.5561 50.0425 49.8131C50.4868 50.07 50.7663 50.5148 50.8822 51.1473C50.9116 50.5741 50.9409 50.0743 50.9689 49.6479C50.9982 49.2215 51.0234 48.8248 51.0457 48.4563C51.0681 48.0892 51.0932 47.7207 51.1226 47.3536C51.1519 46.9866 51.1813 46.5672 51.2092 46.0971C51.2232 45.7738 51.2595 45.5818 51.3182 45.5239C51.3475 45.4942 51.3839 45.4759 51.4272 45.4688C51.4705 45.4618 51.5501 45.4575 51.6675 45.4575H52.5185C52.9544 45.4575 53.3191 45.5098 53.6098 45.6114C53.9004 45.7145 54.1337 45.8542 54.3084 46.0307C54.4831 46.2072 54.606 46.4091 54.6801 46.6378C54.7527 46.8665 54.7891 47.1051 54.7891 47.355C54.7304 48.0906 54.6801 48.7627 54.6368 49.3726C54.5934 49.9825 54.5417 50.6785 54.4845 51.4565C54.4258 52.2358 54.3685 53.0406 54.3098 53.8721C54.2511 54.7037 54.1938 55.5268 54.1351 56.3429C54.0764 57.1589 54.0192 57.9086 53.9605 58.5934C53.9018 59.2767 53.8543 59.8655 53.818 60.3582C53.7816 60.8509 53.7565 61.1785 53.7411 61.3394C53.7118 61.5159 53.6754 61.6331 53.6321 61.6924C53.5888 61.7517 53.4644 61.7799 53.2604 61.7799H52.4752C52.1691 61.7799 51.8813 61.7545 51.613 61.7023C51.3434 61.6514 51.1114 61.5625 50.9144 61.4368C50.7174 61.3126 50.5651 61.1432 50.4561 60.93C50.3471 60.7168 50.2926 60.4415 50.2926 60.1026C50.0313 60.6617 49.6345 61.1178 49.1035 61.4707C48.5725 61.8237 47.906 62.0002 47.1054 62.0002H47.1068ZM49.0057 52.3615C48.2637 52.3615 47.7132 52.689 47.3569 53.3427C47.0006 53.9978 46.8217 54.876 46.8217 55.9786C46.8217 56.3612 46.8469 56.7368 46.8986 57.1039C46.9489 57.471 47.0397 57.8027 47.171 58.0964C47.3024 58.3901 47.4798 58.6258 47.7062 58.8023C47.9312 58.9788 48.219 59.0678 48.5683 59.0678C49.1943 59.0678 49.7183 58.7586 50.1403 58.1416C50.5623 57.5246 50.7733 56.5533 50.7733 55.2303C50.7733 54.8633 50.7509 54.5061 50.7076 54.1602C50.6643 53.8143 50.5762 53.5093 50.4449 53.2453C50.3135 52.9813 50.1319 52.7681 49.8986 52.6057C49.6652 52.4448 49.3676 52.3629 49.0029 52.3629L49.0057 52.3615Z" fill="white"/>
<path d="M61.2753 62.0002C60.2706 62.0002 59.4378 61.8562 58.7755 61.5696C58.1132 61.283 57.5864 60.8891 57.1924 60.3893C56.7998 59.8895 56.5231 59.305 56.3624 58.6358C56.2017 57.9666 56.1221 57.2493 56.1221 56.4855C56.1221 55.6031 56.2269 54.7391 56.4393 53.8934C56.6502 53.0477 57.0107 52.2937 57.5194 51.633C58.028 50.9708 58.7015 50.4386 59.5384 50.0334C60.3754 49.6296 61.4192 49.4263 62.6712 49.4263C64.5044 49.4263 65.8179 49.8781 66.6115 50.7831C67.4038 51.6881 67.8006 52.9559 67.8006 54.588C67.8006 55.044 67.7685 55.5481 67.7028 56.0987C67.6371 56.6507 67.5128 57.1985 67.3311 57.7421C67.1495 58.2856 66.9022 58.8151 66.5892 59.3304C66.2762 59.8457 65.8793 60.3003 65.4001 60.6985C64.9194 61.0952 64.3409 61.4115 63.6646 61.6472C62.9884 61.883 62.1919 62.0002 61.2739 62.0002H61.2753ZM62.3009 52.3615C61.7476 52.3615 61.3074 52.5055 60.9805 52.7921C60.6535 53.0787 60.4048 53.4246 60.2385 53.8284C60.0708 54.2336 59.9618 54.66 59.9115 55.1076C59.8598 55.5565 59.8347 55.9349 59.8347 56.2441C59.8347 57.214 59.987 57.9284 60.293 58.383C60.599 58.8391 61.0349 59.0664 61.6022 59.0664C62.1109 59.0664 62.53 58.904 62.857 58.5807C63.184 58.2574 63.4397 57.8677 63.6213 57.4117C63.803 56.9557 63.9273 56.4785 63.993 55.9773C64.0587 55.4775 64.0908 55.0581 64.0908 54.7207C64.0908 53.9851 63.9567 53.4077 63.687 52.9898C63.4173 52.5705 62.9562 52.3615 62.3009 52.3615Z" fill="white"/>
<path d="M76.4903 54.9197C76.4037 54.9197 76.3045 54.9169 76.1955 54.9085C76.0865 54.9014 75.9803 54.8859 75.8783 54.8647C75.7763 54.8421 75.6897 54.8139 75.6156 54.7772C75.543 54.7404 75.5067 54.6924 75.5067 54.6346C75.5067 54.444 75.5136 54.2675 75.529 54.1051C75.543 53.9442 75.5514 53.7747 75.5514 53.5983C75.5514 53.2749 75.5081 53.0095 75.42 52.8048C75.3334 52.5987 75.1573 52.4956 74.896 52.4956C74.488 52.4956 74.1499 52.7639 73.8816 53.3004C73.6119 53.8369 73.4415 54.643 73.3688 55.716C73.3395 56.1862 73.2989 56.7199 73.2486 57.3157C73.1969 57.9115 73.1508 58.4847 73.1061 59.0367C73.0628 59.5887 73.0265 60.0772 72.9971 60.5036C72.9678 60.93 72.9538 61.2095 72.9538 61.3423C72.9538 61.4891 72.9021 61.5992 72.8015 61.6726C72.6995 61.746 72.5905 61.7828 72.4745 61.7828H71.6893C71.2379 61.7828 70.8705 61.7347 70.5868 61.6387C70.3032 61.5427 70.0768 61.4072 69.9105 61.2307C69.7428 61.0542 69.6269 60.8368 69.5612 60.5799C69.4955 60.3229 69.4634 60.025 69.4634 59.6862C69.4634 59.4659 69.4746 59.1539 69.4955 58.7487C69.5179 58.3449 69.557 57.7858 69.6157 57.0728C69.6744 56.3598 69.7428 55.4548 69.8225 54.3592C69.9021 53.2636 69.9999 51.9069 70.1173 50.2903C70.1467 49.8639 70.299 49.6507 70.5756 49.6507H71.4266C71.8346 49.6507 72.1755 49.6945 72.4522 49.7834C72.7288 49.871 72.9538 49.9924 73.1285 50.1477C73.3031 50.303 73.4303 50.4823 73.5099 50.6884C73.5896 50.8946 73.6441 51.1078 73.6734 51.328C73.8481 50.9906 74.0549 50.6997 74.2952 50.4569C74.5355 50.2141 74.7857 50.0164 75.0483 49.8611C75.311 49.7058 75.5793 49.5957 75.856 49.5307C76.1326 49.4644 76.3869 49.4319 76.6203 49.4319C76.897 49.4319 77.1764 49.4841 77.4615 49.5858C77.7451 49.6888 78.0036 49.8427 78.237 50.0489C78.4703 50.255 78.6548 50.519 78.7931 50.8423C78.9314 51.1656 78.9999 51.5483 78.9999 51.9887C78.9999 52.3855 78.9412 52.761 78.8252 53.114C78.7092 53.467 78.5416 53.779 78.3236 54.0515C78.1056 54.3239 77.8401 54.5371 77.5271 54.691C77.2142 54.8449 76.869 54.9226 76.4903 54.9226V54.9197Z" fill="white"/>
<path d="M32.3582 36.2521C32.3121 36.0926 32.2576 35.9274 32.2143 35.7665C32.0844 35.2921 31.967 34.8149 31.865 34.3334C31.253 31.473 31.1272 28.4884 31.5967 25.628C31.6526 25.2792 31.7225 24.9277 31.8021 24.5775C29.6768 24.5888 27.5488 24.5507 25.4165 24.4646C25.4626 24.7526 25.5143 25.0406 25.5702 25.3258C26.2856 28.8865 27.7123 32.2834 29.7257 35.2709C30.1366 35.8808 30.5725 36.4752 31.0322 37.0498C31.5478 37.6781 32.5511 37.1953 32.3876 36.3905L32.3582 36.2521Z" fill="white"/>
<path d="M24.3126 15.2113C23.8935 15.32 23.4631 15.0645 23.3555 14.6409C23.3345 14.5591 23.2521 14.5111 23.1725 14.5308C23.0914 14.552 23.0439 14.6353 23.0635 14.7158C23.1906 15.2156 23.6406 15.5459 24.1296 15.5403C24.2148 15.5403 24.3015 15.5276 24.3881 15.505C24.669 15.4316 24.9051 15.2523 25.0532 14.9996C25.2013 14.7468 25.2418 14.4518 25.1692 14.1666C25.1482 14.0847 25.0658 14.0367 24.9861 14.0564C24.9051 14.0776 24.8576 14.1609 24.8772 14.2414C24.9302 14.4461 24.8995 14.6607 24.7933 14.8428C24.6871 15.025 24.5167 15.1549 24.3126 15.2085V15.2113Z" fill="white"/>
<path d="M31.6737 13.5172C31.2601 13.6485 30.8186 13.4155 30.6886 12.9976C30.6635 12.9171 30.5796 12.8734 30.5 12.8974C30.4203 12.9228 30.377 13.0075 30.4008 13.088C30.5531 13.5793 31.0198 13.8871 31.5074 13.856C31.5927 13.8504 31.6793 13.8348 31.7645 13.808C32.336 13.6259 32.656 13.0089 32.4758 12.43C32.4506 12.3496 32.3668 12.3058 32.2871 12.3298C32.2075 12.3552 32.1642 12.4399 32.1879 12.5204C32.3179 12.9383 32.0873 13.3845 31.6737 13.5158V13.5172Z" fill="white"/>
<path d="M63.3473 14.2739C61.4023 14.7624 59.4461 15.2057 57.4773 15.6053C57.761 13.7261 57.8951 11.823 57.8616 9.91837C57.8616 9.77153 57.8574 9.62611 57.8462 9.48211C57.8462 9.46516 57.8434 9.44822 57.8434 9.43128C57.5234 4.17778 53.2016 -1.05595 45.5794 0.183658C39.0555 1.44444 34.7644 9.68118 33.2595 8.81712C33.2385 8.80301 33.219 8.7903 33.198 8.77618C32.2185 8.13802 31.0476 7.67917 29.7355 7.42222C29.7509 7.39539 29.7635 7.36574 29.7705 7.33327C29.8124 7.1582 29.7062 6.98313 29.5329 6.94077C29.4868 6.92948 28.777 6.76429 27.8883 6.96619C28.7574 6.48475 29.5958 6.58075 29.6447 6.58781C29.8361 6.61322 30.0122 6.47769 30.0373 6.28285C30.0639 6.08943 29.9283 5.91012 29.7355 5.88471C29.6782 5.87624 28.6526 5.74917 27.5851 6.32521C27.9512 5.95389 28.2949 5.78306 28.3243 5.76894C28.4989 5.68564 28.573 5.47527 28.4919 5.29738C28.4095 5.11949 28.2013 5.04325 28.0252 5.12655C27.9638 5.1562 26.6671 5.78729 26.1682 7.33044C26.09 7.34456 26.0103 7.36151 25.9321 7.37845C21.5865 8.34698 18.6899 12.6503 19.506 16.3875C19.9503 18.4191 21.5893 19.6262 23.4994 20.2108C23.3709 20.1599 23.2451 20.1091 23.2451 20.1091C22.5367 19.8168 21.8688 19.4032 21.3546 18.8201C20.7398 18.0958 20.5665 17.2586 20.6028 16.3056C20.7412 14.1567 22.0155 12.07 23.9605 11.1297C24.0346 11.0987 24.1659 11.0366 24.24 11.014C24.5418 10.9024 24.8785 10.8742 25.1832 10.901C25.5842 10.9349 25.9363 11.0408 26.3052 11.1453C26.6391 11.2413 27.0429 11.302 27.2609 11.0224C27.4873 10.7514 27.6578 10.3786 27.9442 10.133C29.0019 9.18985 30.5515 9.51599 31.749 9.96496C32.681 10.3193 33.5683 10.8375 34.2641 11.5646C35.2618 12.6305 35.9507 14.1158 35.7858 15.6039C35.5888 17.1753 33.2385 19.2465 33.0108 19.3749C31.9684 20.0696 30.6549 20.592 29.1501 20.9266C28.0364 21.1751 26.9367 21.2809 25.9055 21.2386C23.1864 21.2852 20.0118 20.3124 18.9554 17.7612C17.7356 17.6539 16.5144 17.5297 15.2931 17.3871C14.9731 17.8148 14.7174 18.2511 14.5288 18.693C13.9461 20.0597 13.9992 21.5054 14.7496 23.0302C21.5488 23.8138 28.3494 24.0948 35.0997 23.8872C35.1528 24.1173 35.2003 24.3475 35.245 24.5762C35.5622 26.1659 35.7159 27.8432 35.7383 29.4767C35.762 31.178 35.6503 32.8976 35.4141 34.5933C35.382 34.8248 35.347 35.0564 35.3093 35.2893C35.3093 35.2893 35.3093 35.2921 35.3079 35.3006C35.3079 35.3034 35.3079 35.3049 35.3079 35.3077C35.2073 35.9162 35.0899 36.5247 34.9516 37.1233C34.6484 38.2302 36.0722 38.8966 36.7052 37.945C37.0741 37.3605 37.4234 36.7661 37.7532 36.1618C37.7532 36.1618 37.7532 36.1618 37.7532 36.1604C38.7816 34.2798 39.6297 32.3033 40.3214 30.2617C40.7504 28.9882 41.1067 27.6865 41.3805 26.365C41.674 24.9546 41.8724 23.523 41.966 22.0843C42.0051 21.3755 42.0233 20.6597 42.0163 19.9453C42.0051 19.1815 41.9478 18.3273 41.8752 17.5621C41.8151 17.1216 41.7369 16.3931 41.6488 15.9569L41.5035 15.1507L41.4797 15.0222C41.0494 13.071 39.8687 11.9063 38.4895 11.4262C37.9334 11.2328 37.3466 11.1495 36.7625 11.1721C37.7546 10.9081 38.8277 10.9547 39.7876 11.3373C41.1444 11.8794 42.272 13.0964 42.6157 15.0646L42.6339 15.1945L42.7429 16.0077C42.81 16.4482 42.8575 17.1781 42.8966 17.6214C42.9357 18.3881 42.9553 19.2436 42.9329 20.0075C42.9078 20.7218 42.8575 21.4362 42.7876 22.1422C42.7401 22.5798 42.6814 23.0175 42.6129 23.4524C44.6879 23.2759 46.7559 23.0542 48.8169 22.786C48.6842 21.3007 48.4564 19.8267 48.1267 18.3838C47.8025 16.9819 47.3679 15.5827 46.8174 14.257C46.8132 14.2471 46.809 14.2358 46.8048 14.2259C46.51 13.4918 46.1621 12.7915 45.8127 12.111C44.6125 9.77295 45.1392 6.99019 46.9264 5.25361C47.3148 4.87524 47.7648 4.54628 48.2678 4.28226C50.1108 3.28549 52.2207 3.48174 53.8751 4.45592C52.5337 3.9886 51.0232 3.99848 49.6259 4.66628C49.109 4.90489 48.6451 5.21126 48.2384 5.56987C46.3689 7.21467 45.7065 9.96778 46.7894 12.3623C47.1052 13.0597 47.4182 13.777 47.6767 14.5238C47.6809 14.5337 47.6837 14.545 47.6879 14.5563C48.1728 15.9074 48.5375 17.3278 48.7932 18.7438C49.5058 22.7803 49.4499 27.0074 48.6786 31.0665C48.6786 31.0665 48.6786 31.0721 48.6758 31.082C48.6758 31.0862 48.6758 31.0905 48.673 31.0947C48.673 31.0975 48.673 31.1018 48.6716 31.1046C48.6702 31.1131 48.6688 31.1201 48.666 31.13C48.666 31.1357 48.6646 31.1399 48.6632 31.1455C48.6632 31.1512 48.6618 31.1554 48.6604 31.1611C48.564 31.6665 48.455 32.1677 48.3363 32.6661C48.068 33.6643 49.2543 34.3208 49.9152 33.5245C50.3288 32.9866 50.7228 32.4388 51.1015 31.8825C52.9794 29.1238 54.4522 26.1335 55.6064 22.9441C55.7587 22.5163 55.9054 22.0871 56.0437 21.6537C58.9724 21.1143 61.8816 20.4818 64.7642 19.7561C65.2127 18.1706 65.0269 16.7447 64.2626 15.4684C64.0152 15.0561 63.7064 14.6579 63.339 14.2739H63.3473Z" fill="white"/>
<path d="M25.7338 20.3406C25.7436 20.3406 25.7548 20.342 25.766 20.3434C27.4958 20.4521 29.2466 20.253 30.894 19.7123C31.1344 19.6276 31.4292 19.5288 31.6625 19.4285C31.7003 19.413 31.7548 19.3918 31.8065 19.3721C32.051 19.2379 32.2913 19.0812 32.5317 18.892C33.0556 18.4784 33.5112 17.9164 33.6118 17.2345C33.69 16.6966 33.5279 16.1573 33.2079 15.7267C32.9187 15.337 32.5135 15.0391 32.0636 14.8654C31.5703 14.6762 31.0533 14.6424 30.5782 14.3896C29.2522 13.6795 29.2341 11.9471 30.9192 11.6083C31.4739 11.4968 32.051 11.5786 32.5666 11.813C33.1032 12.0573 33.8926 12.5189 34.7003 13.3533C34.8679 13.527 35.0132 13.7176 35.1544 13.911C35.3472 14.1736 35.5107 14.4856 35.6211 14.8146C35.6867 15.0123 35.7245 15.217 35.7342 15.4217C35.7957 14.3995 35.3751 13.3943 34.7478 12.6051C34.2391 11.9612 33.5684 11.4615 32.8349 11.1085C31.8526 10.6553 30.6285 10.2388 29.5456 10.2896C29.1265 10.315 28.7059 10.4633 28.4124 10.7598C28.2783 10.8981 28.1987 11.0393 28.0813 11.213C27.7194 11.7918 27.2289 12.0897 26.4982 11.9584C26.0315 11.8723 25.5773 11.6633 25.1176 11.6168C24.8591 11.5871 24.623 11.6069 24.3896 11.693C24.3142 11.7226 24.1577 11.7876 24.085 11.8243C23.6295 12.0474 23.2131 12.3453 22.8345 12.6968C21.8144 13.6399 21.0976 14.9431 20.916 16.3352C20.8908 16.5879 20.8852 16.8321 20.9006 17.0679C20.9048 17.0326 20.909 16.9987 20.9132 16.9691C21.127 15.4584 22.0715 13.7825 23.5108 13.1529C23.5149 13.15 23.5205 13.1486 23.5261 13.1458C25.1651 12.3905 26.4045 13.2714 26.0468 14.4292C25.854 15.0546 25.3216 15.7478 24.4707 16.2773C24.1549 16.4735 23.902 16.7107 23.7162 16.9733C22.8498 18.1875 23.5052 19.8606 25.7352 20.342L25.7338 20.3406ZM27.9471 13.647C28.8358 13.503 29.6169 13.7783 29.6938 14.2612C29.7706 14.744 29.1111 15.2509 28.2238 15.3949C27.3365 15.5389 26.5541 15.2636 26.4772 14.7807C26.4003 14.2979 27.0599 13.791 27.9471 13.647Z" fill="white"/>
<path d="M27.2861 14.2895C27.3043 14.2895 27.3224 14.2839 27.3392 14.274C27.3406 14.274 27.5111 14.1653 27.7835 14.1215C27.838 14.1131 27.8757 14.0608 27.8674 14.0043C27.859 13.9493 27.8073 13.9112 27.7514 13.9196C27.4356 13.9705 27.2386 14.0961 27.2302 14.1004C27.1841 14.13 27.1701 14.1935 27.1995 14.2401C27.219 14.2712 27.2526 14.2881 27.2861 14.2867V14.2895Z" fill="white"/>
<path d="M61.6959 13.7643C61.9656 13.842 62.2423 13.8702 62.5133 13.8532C62.505 13.8052 62.5077 13.7516 62.5217 13.6923C62.5776 13.5088 62.5972 13.28 62.5986 13.0499C62.5986 12.3327 62.4658 11.6169 62.3205 10.9081C62.1137 9.94948 61.8524 9.00072 61.552 8.06607C62.1486 9.42286 63.3349 12.2127 63.1812 13.7163C63.3391 13.6612 63.4914 13.5892 63.6368 13.5017C63.62 13.4523 63.606 13.4029 63.5962 13.352C63.4146 12.5332 63.7709 11.6112 64.4877 11.1665C64.6847 11.0394 64.8971 10.9434 65.1193 10.8728C64.8957 8.61105 61.7812 6.47492 61.151 6.76152C57.7095 10.8559 60.0932 13.3012 61.6959 13.7629V13.7643Z" fill="white"/>
<path d="M67.0125 11.3599C66.9971 11.3006 66.972 11.2385 66.9357 11.2088C66.6394 11.1566 66.142 11.0789 65.7745 11.0959C65.1904 11.1086 64.577 11.2724 64.1592 11.7058C63.747 12.1322 63.5724 12.776 63.6939 13.3577C63.7638 13.664 63.9427 13.9393 64.1858 14.1328C64.489 13.3492 65.0451 12.7068 65.6795 12.183C65.8961 12.0065 66.1196 11.8413 66.3558 11.6973C66.1532 11.8851 65.9687 12.0898 65.7969 12.3016C65.305 12.9115 64.89 13.6316 64.7838 14.4123C64.7838 14.4165 64.7824 14.4222 64.781 14.4264C65.0214 14.4984 65.2757 14.5238 65.5202 14.4744C66.557 14.2457 66.979 12.8918 67.0474 11.9458C67.0586 11.751 67.0628 11.5505 67.0153 11.3613L67.0125 11.3599Z" fill="white"/>
<path d="M17.9718 23.9551C18.5936 25.23 18.8996 26.6277 19.0966 28.024C18.9974 27.6753 18.8829 27.3336 18.7613 26.9948C18.412 26.039 17.9942 25.0846 17.4087 24.2572C15.3449 27.2292 18.9108 29.1309 19.3705 28.737C19.8107 28.3586 20.0133 27.0979 19.9364 26.2056C19.7687 24.2558 18.5796 23.972 17.9718 23.9565V23.9551Z" fill="white"/>
<path d="M14.3249 25.9316C13.7325 26.9904 13.2588 28.1143 12.8186 29.248C12.5993 29.8184 12.3897 30.393 12.1968 30.9747C12.6356 29.183 13.1414 27.3971 13.8848 25.7057C14.1181 25.196 14.3598 24.7047 14.7022 24.2543C14.6994 24.2543 14.698 24.2543 14.6952 24.2543C13.643 24.2147 10.8722 24.4491 10.5117 27.9406C10.3608 29.4061 10.7604 31.4731 11.6309 32.0943C12.5517 32.7508 19.7981 29.5289 15.3254 24.5324C14.9271 24.9235 14.6086 25.4388 14.3263 25.933L14.3249 25.9316Z" fill="white"/>
<path d="M45.4622 30.3958C45.2428 28.2215 45.2275 26.0191 45.4189 23.8406C44.4506 23.9408 43.4823 24.0298 42.5111 24.1102C42.3756 24.8783 42.2121 25.6407 42.0193 26.3946C41.86 27.0229 41.6811 27.6469 41.4841 28.2639C41.969 29.3327 42.5014 30.3789 43.0868 31.3982C43.3956 31.9361 43.7184 32.467 44.0579 32.9908C44.6532 33.8393 45.8884 33.2816 45.7012 32.2637C45.6047 31.6439 45.5251 31.0198 45.4622 30.3944V30.3958Z" fill="white"/>
</g>
<defs>
<clipPath id="clip0_1633_13568">
<rect width="79" height="62" fill="white"/>
</clipPath>
</defs>
</svg>
