<svg width="25" height="24" viewBox="0 0 25 24" fill="none" xmlns="http://www.w3.org/2000/svg">
<path d="M18.0052 8.58997C19.0092 8.91997 19.8422 9.04497 20.6292 8.98597C21.6192 8.91197 22.1432 8.34597 22.1472 7.34797C22.1447 6.89537 22.131 6.44289 22.1063 5.99097L22.0893 5.61497C22.0898 5.47268 22.0429 5.33429 21.9559 5.22164C21.869 5.109 21.747 5.02854 21.6092 4.99297C21.422 4.93693 21.2317 4.89153 21.0392 4.85697C18.9963 4.48697 17.4242 3.69797 16.2322 2.44297C16.03 2.2343 15.7573 2.10846 15.4672 2.08997H15.4582C14.8442 2.09797 14.2222 2.16297 13.6212 2.22597L13.3162 2.25797C12.9662 2.29397 12.7542 2.52297 12.7372 2.88797C12.7302 3.02619 12.7265 3.16456 12.7262 3.30297C12.7262 4.14897 12.7282 4.99497 12.7292 5.83997C12.7361 7.8813 12.7344 9.92265 12.7242 11.964C12.7185 12.9231 12.6677 13.8815 12.5722 14.836C12.5512 15.0774 12.4816 15.3121 12.3677 15.5261C12.2538 15.74 12.0978 15.9287 11.9092 16.081C11.7039 16.2402 11.4687 16.3564 11.2175 16.4227C10.9663 16.489 10.7044 16.5041 10.4472 16.467C9.41625 16.337 8.85225 15.724 8.67525 14.537C8.57625 13.88 8.70725 13.287 9.05425 12.821C9.39425 12.363 9.91425 12.072 10.5542 11.981C11.1492 11.895 11.3322 11.663 11.2742 11.06C11.2262 10.546 11.1482 10.028 11.0732 9.52597C11.0232 9.19997 10.9732 8.86197 10.9302 8.52997C10.8882 8.19097 10.6822 7.98997 10.3202 7.93297C10.0951 7.89793 9.86607 7.89557 9.64025 7.92597C6.89425 8.29597 4.87425 9.71997 3.63725 12.158C2.74525 13.915 2.63725 15.932 3.34225 17.692C4.02625 19.401 5.39725 20.694 7.20225 21.332C8.31225 21.732 9.48225 21.937 10.6612 21.941C11.9242 21.941 13.2042 21.701 14.5192 21.219C16.0722 20.65 16.9842 19.489 17.2292 17.768C17.5692 15.368 17.6232 13.349 17.3992 11.418C17.3172 10.718 17.2882 10.012 17.2572 9.26597C17.2451 8.94922 17.2311 8.63255 17.2152 8.31597L17.4582 8.40097C17.6682 8.47597 17.8342 8.53297 18.0052 8.58997ZM15.8512 9.22597C15.8662 10.631 15.8812 12.085 15.8632 13.513L15.8622 13.594C15.8462 14.886 15.8292 16.221 15.5812 17.519C15.3542 18.707 14.7412 19.455 13.7062 19.805C11.5162 20.545 9.50425 20.55 7.55325 19.82C4.83125 18.8 4.01025 16.29 4.40525 14.254C4.92225 11.582 6.43025 9.88097 8.88525 9.19597C9.14325 9.12397 9.44825 9.03997 9.75925 8.96197C9.83325 8.94497 9.90925 8.93197 9.98425 8.92497L10.0852 8.91097L10.1952 10.887C10.1681 10.9006 10.1411 10.9146 10.1142 10.929C10.0579 10.9627 9.99741 10.989 9.93425 11.007C8.18725 11.387 7.18625 13.052 7.50125 15.055C7.59014 15.635 7.83243 16.1808 8.20305 16.6358C8.57367 17.0909 9.05915 17.4386 9.60925 17.643C10.1844 17.863 10.8073 17.9278 11.4154 17.8307C12.0234 17.7336 12.5952 17.4781 13.0732 17.09C13.7512 16.535 14.0822 15.841 14.0292 15.084C13.9672 14.212 14.0082 13.327 14.0472 12.471C14.0722 11.927 14.0972 11.365 14.0972 10.811C14.0952 9.38397 14.0902 7.93397 14.0842 6.53097C14.0815 5.62597 14.0792 4.72097 14.0772 3.81597V3.51597C14.3922 3.39697 14.7022 3.41797 15.0022 3.43797C15.1142 3.44597 15.2302 3.45297 15.3442 3.45297H15.3462L15.4362 3.54297C16.6262 4.72397 16.8792 4.97497 20.7032 6.23497L20.6483 7.30097L20.5823 7.33597C20.5496 7.35672 20.5138 7.37192 20.4762 7.38097C19.3422 7.29697 18.0342 7.15097 16.8682 6.48597C16.7029 6.40111 16.5285 6.33535 16.3482 6.28997C16.2502 6.25997 16.1482 6.22997 16.0352 6.19097C16.0179 6.18507 15.999 6.18511 15.9816 6.19108C15.9642 6.19705 15.9493 6.20862 15.9392 6.22397C15.9324 6.23418 15.928 6.2458 15.9262 6.25797C15.9122 6.36797 15.8962 6.46497 15.8822 6.55297C15.8531 6.70132 15.8364 6.85184 15.8322 7.00297C15.8342 7.74397 15.8432 8.49797 15.8512 9.22597Z" fill="#39685C"/>
</svg>
