<svg width="25" height="24" viewBox="0 0 25 24" fill="none" xmlns="http://www.w3.org/2000/svg">
<path fill-rule="evenodd" clip-rule="evenodd" d="M8.74358 17.3093C9.56424 16.41 10.3922 15.5173 11.2303 14.6135L11.5707 14.2465C11.8414 14.6214 12.1114 14.9966 12.3813 15.3718C13.1693 16.467 13.957 17.5618 14.7592 18.6458C15.1255 19.1147 15.5159 19.5625 15.9313 19.9885C16.1465 20.2202 16.5982 20.1901 16.9121 20.2013C17.9584 20.2387 19.4631 20.1319 20.0417 19.9885C20.4042 19.8986 20.4222 19.4358 20.2506 19.1416C20.0363 18.7908 19.7979 18.4543 19.5359 18.1348C19.2776 17.807 19.0145 17.4826 18.7514 17.1581C18.3385 16.6488 17.9254 16.1394 17.5305 15.6167C17.0679 15.0046 16.6255 14.3774 16.1782 13.7432C15.9743 13.4541 15.7693 13.1635 15.561 12.8722C15.5284 12.8406 15.2609 12.4242 15.0445 12.0874C14.9035 11.8678 14.7842 11.6821 14.7659 11.6589L14.3936 11.0988C14.941 10.4831 15.477 9.8788 16.0067 9.26911L16.0649 9.20214C17.2018 7.89509 18.3383 6.58855 19.4432 5.25664C19.8587 4.75552 19.8423 4.33013 19.5269 4.10594C19.2223 3.88952 18.8651 4.00197 18.452 4.46832C17.3516 5.70761 16.2559 6.95092 15.1649 8.19823C14.6537 8.78262 14.1454 9.36934 13.6366 9.95794C12.9639 8.94381 12.291 7.92967 11.6138 6.91834C11.0386 6.05309 10.5394 5.3261 9.93506 4.48047C9.69138 4.14122 9.18342 4.09766 8.82178 4.09766C7.97297 4.09766 7.67725 4.11719 6.84912 4.09766C6.41375 4.08739 5.92375 4.07571 5.73934 4.24219C5.55494 4.40867 5.57405 4.6456 5.73934 4.91929C5.75607 4.94686 5.77122 4.9756 5.78646 5.00448C5.80206 5.03404 5.81773 5.06376 5.83524 5.09253C6.08081 5.50089 6.32569 5.90959 6.57056 6.31829C7.26137 7.47128 7.95216 8.62424 8.65858 9.7692C9.25688 10.7397 10.5264 12.6605 10.5264 12.6605L10.8511 13.1694L10.8311 13.1931C9.13493 15.2062 7.43986 17.2202 5.74593 19.2352C5.72839 19.2564 5.70955 19.2779 5.69049 19.2996C5.61364 19.3872 5.53289 19.4792 5.51643 19.5773C5.48859 19.7458 5.48764 19.9718 5.58181 20.0894C5.65295 20.1778 5.92889 20.2019 6.0495 20.1373C6.29202 20.001 6.50943 19.8249 6.6936 19.6177C7.0234 19.2542 7.34717 18.885 7.67089 18.5159C8.02585 18.1111 8.38077 17.7064 8.74358 17.3093ZM10.3864 10.0846C9.70773 9.03727 8.98026 8.02147 8.29701 6.97708C7.61375 5.9327 7.1092 5.30446 7.19678 5.12931C7.28436 4.95415 8.71392 4.97259 8.9997 5.12931C9.28548 5.28602 9.57322 5.88837 9.8215 6.29297C10.5219 7.43437 11.2223 8.57573 11.9385 9.70925C12.1555 10.053 12.4596 10.5172 12.7606 10.9717L13.5095 12.0937C13.7037 12.3828 13.8316 12.572 13.8316 12.572C13.8316 12.572 14.4871 13.576 14.4985 13.5921C14.5528 13.6684 14.5993 13.7355 14.6418 13.7969C14.6942 13.8726 14.7407 13.9397 14.7888 14.0054C15.0969 14.4222 15.404 14.8396 15.7111 15.2568C16.5094 16.3415 17.189 17.2313 18.1903 18.4503C18.3831 18.685 19.0036 19.1393 18.7514 19.2613C18.4992 19.3833 17.1848 19.3384 16.9707 19.1963C16.7566 19.0542 16.4231 18.5947 16.1644 18.2722C15.9093 17.9413 15.6495 17.6137 15.3897 17.2862C14.9819 16.7721 14.574 16.2579 14.1841 15.7301C13.7274 15.1121 13.2909 14.4788 12.8494 13.8383C12.7218 13.6532 12.5937 13.4674 12.4646 13.2812C12.2597 12.9856 11.9546 12.523 11.7307 12.1661C11.5915 11.9443 11.4738 11.7567 11.4557 11.7333C11.0989 11.184 10.7427 10.6343 10.3864 10.0846Z" fill="#295D75"/>
</svg>
