<svg width="25" height="24" viewBox="0 0 25 24" fill="none" xmlns="http://www.w3.org/2000/svg">
<path d="M23.3519 12.1152C23.3077 11.2477 23.2667 10.3801 23.2289 9.51224C23.1807 8.41943 23.1294 7.32676 23.0749 6.23424C23.0504 5.49443 22.7479 4.79102 22.2279 4.26424C21.5949 3.61924 20.7699 3.30024 19.7049 3.28724C17.3649 3.25924 14.5929 3.22724 11.7879 3.19924C11.2919 3.19424 10.7879 3.19524 10.3009 3.19724L9.47891 3.19824C9.08491 3.19824 8.69191 3.19624 8.29891 3.19324C7.41491 3.18824 6.50191 3.18324 5.60291 3.20024C4.80491 3.21524 4.14391 3.37624 3.58291 3.69324C2.42491 4.34524 1.80891 5.29624 1.75191 6.52024C1.72394 7.18726 1.70627 7.85468 1.69891 8.52224L1.69591 8.73924C1.68291 9.51824 1.67191 10.2962 1.66191 11.0752C1.64191 12.4752 1.62191 13.9252 1.59091 15.3492C1.57191 16.2212 1.61591 17.2442 2.08491 18.2242C2.48491 19.0642 3.01191 19.6082 3.73891 19.9392C4.38426 20.2265 5.0633 20.4311 5.75991 20.5482C6.98391 20.7672 8.23891 20.7912 9.45191 20.8152L9.55191 20.8172C9.75491 20.8212 9.96291 20.8372 10.1639 20.8532L10.4479 20.8742H18.7149C18.8639 20.8562 19.0129 20.8422 19.1629 20.8272C19.4859 20.7952 19.8199 20.7632 20.1469 20.7072C21.8889 20.4072 23.0529 19.2622 23.2609 17.6462C23.4299 16.2822 23.4829 14.9062 23.4189 13.5342C23.3999 13.0612 23.3759 12.5812 23.3519 12.1152ZM22.0459 13.4972C22.0329 14.8322 21.9559 16.1772 21.8699 17.5512C21.7939 18.7832 20.7269 19.3142 19.8349 19.3942C19.4789 19.4262 19.1209 19.4432 18.7719 19.4442L17.2219 19.4492C14.7019 19.4592 12.0959 19.4692 9.53191 19.4632C8.07991 19.4592 6.66191 19.4272 5.29391 19.0762C4.87496 18.9723 4.46931 18.8206 4.08491 18.6242C3.65391 18.3982 3.34391 17.9992 3.13691 17.4042C2.85534 16.5683 2.71476 15.6913 2.72091 14.8092C2.71291 13.6842 2.73291 12.5392 2.75191 11.4332L2.76491 10.6752C2.78491 9.44724 2.80491 8.17524 2.84691 6.92824C2.89391 5.49624 3.70191 4.58724 5.12391 4.36824C5.86521 4.25535 6.61405 4.19919 7.36391 4.20024H7.44691C8.77691 4.20724 10.1299 4.24024 11.4389 4.27224L13.0529 4.31124C13.0661 4.31132 13.0792 4.30828 13.091 4.30238C13.1028 4.29647 13.113 4.28786 13.1209 4.27724L14.8189 4.31924C16.4159 4.35924 18.0669 4.39924 19.6909 4.44624C20.1719 4.46024 20.6769 4.52124 21.1059 4.87824C21.5299 5.23024 21.7379 5.61024 21.7619 6.07224L21.7779 6.38824C21.8524 7.78044 21.917 9.17314 21.9719 10.5662C22.0119 11.5282 22.0549 12.5212 22.0459 13.4972Z" fill="#39685C"/>
<path d="M15.5602 10.8186C15.2403 10.5584 14.9169 10.3024 14.5902 10.0506L14.2442 9.78259C13.3342 9.07759 12.3932 8.34858 11.4612 7.63958C11.2981 7.52398 11.1189 7.433 10.9292 7.36958C10.5942 7.24758 10.2622 7.35359 10.1022 7.63559C9.87925 8.02759 9.76225 8.36258 9.74625 8.65958C9.7089 9.4287 9.6889 10.1986 9.68625 10.9686L9.67525 11.7846C9.6608 11.7907 9.64842 11.8008 9.63956 11.8138C9.63069 11.8267 9.62573 11.8419 9.62525 11.8576L9.59925 12.6116L9.52425 14.7716C9.51325 15.0796 9.61425 15.2876 9.83425 15.4056C9.92464 15.4554 10.026 15.4819 10.1292 15.4826C10.2767 15.4781 10.4197 15.4312 10.5412 15.3476L11.9032 14.4826C13.0852 13.7326 14.3062 12.9576 15.5032 12.1866C15.7892 12.0036 15.9462 11.7796 15.9602 11.5396C15.9742 11.2926 15.8362 11.0436 15.5602 10.8186ZM14.2282 11.5136L10.7202 13.8026L10.8102 8.93459C11.5222 9.41559 12.1892 9.93658 12.8922 10.4876C13.3242 10.8246 13.7692 11.1736 14.2282 11.5136Z" fill="#39685C"/>
</svg>
